<svg width="190" height="216" viewBox="0 0 190 216" fill="none" xmlns="http://www.w3.org/2000/svg">
<path d="M87.9207 89.5108L92.3877 96.331L72.2 140.368C64.7897 139.145 59.9881 132.821 57.795 121.396C56.987 117.172 56.6638 112.845 56.8254 108.414C56.9639 104.398 57.4256 101.501 58.2105 99.7238L87.9207 89.5108Z" fill="#E9EFF8"/>
<path d="M87.9208 89.5108L92.3877 96.331L78.9523 125.585C78.7676 122.539 78.3867 120.023 77.8096 118.038C77.094 115.591 75.9859 113.618 74.4854 112.118C73.2388 110.456 70.861 109.129 67.3521 108.137C64.9975 107.49 61.5232 106.879 56.9293 106.302C57.1833 103.278 57.6103 101.086 58.2105 99.7238L87.9208 89.5108Z" fill="#C9CFD7"/>
<path d="M63.7855 34.3953C66.7866 38.2497 68.818 41.2501 69.8799 43.3966L85.6007 92.6613L84.3542 92.9036C72.4424 100.566 61.9503 102.367 52.8779 98.3044C49.8307 96.9196 47.1183 94.9462 44.7405 92.3843C43.1708 90.7225 42.0165 89.1531 41.2778 87.6759L23.1677 44.6083C22.2905 41.3309 21.7711 37.6958 21.6095 33.7029C21.2863 25.7171 22.8792 19.9586 26.3881 16.4273C32.6671 10.1495 41.3586 11.9959 52.4624 21.9666C56.2945 25.4286 60.0689 29.5715 63.7855 34.3953Z" fill="#E9EFF8"/>
<path d="M66.3133 37.7535C68.137 40.3846 69.3259 42.2656 69.8799 43.3966L85.6007 92.6613L84.3541 92.9036C75.9974 98.2813 68.2755 100.751 61.1885 100.312C66.498 92.8805 69.2451 82.9907 69.4298 70.6427C69.499 63.8803 68.4602 52.9171 66.3133 37.7535Z" fill="#C9CFD7"/>
<path d="M124.868 124.2L108.836 90.0647L111.71 81.6866L166.906 78.8131C168.521 81.1673 170.045 84.387 171.476 88.4722C173.254 93.5268 174.339 98.5006 174.731 103.394C175.747 116.965 171.257 127.016 161.261 133.548C153.551 138.579 145.171 138.533 136.122 133.409C133.306 131.817 130.582 129.797 127.95 127.351L124.868 124.2Z" fill="#E9EFF8"/>
<path d="M131.69 130.501C129.935 129.186 128.273 127.743 126.703 126.174L124.868 124.2L108.836 90.0648L111.71 81.6866L166.906 78.8131L168.914 82.3444C164.782 87.0759 159.83 90.9303 154.059 93.9076C148.426 96.8388 142.459 98.7198 136.157 99.5507C136.687 111.945 135.198 122.262 131.69 130.501Z" fill="#C9CFD7"/>
<path d="M180.895 5.52194C185.166 9.3071 187.613 16.9697 188.236 28.5098C188.882 40.4192 186.205 51.6593 180.202 62.23C175.101 71.2313 169.456 77.1629 163.27 80.0249C157.522 82.6791 150.492 84.6178 142.182 85.8411C132.948 87.2028 125.214 87.1336 118.981 85.6333L107.312 69.1541C107.912 64.1457 109.886 58.3987 113.233 51.9132C116.442 45.7046 120.563 39.496 125.595 33.2874C136.676 19.5778 147.895 10.3342 159.253 5.55656C169.041 1.4252 176.255 1.41366 180.895 5.52194Z" fill="#E9EFF8"/>
<path d="M124.245 71.0928C128.308 75.755 131.747 80.9481 134.564 86.672C128.562 87.0412 123.368 86.695 118.981 85.6333L113.303 79.0901L107.312 69.1541C107.681 66.1075 108.582 62.7032 110.013 58.9411C115.276 62.2185 120.02 66.2691 124.245 71.0928Z" fill="#C9CFD7"/>
<path d="M48.8958 129.463C49.2651 128.632 50.3501 127.709 52.1507 126.693C54.0206 125.654 55.1056 124.893 55.4057 124.408C55.7981 123.231 56.1906 122.331 56.583 121.708C57.2987 120.554 58.7876 119.573 61.05 118.765C64.1202 117.68 68.2063 115.095 73.308 111.01C79.6102 105.979 84.2041 100.901 87.0897 95.7771L94.4653 96.5734L76.1475 116.999C73.1233 120.115 69.8107 122.654 66.2094 124.616C63.6932 125.978 61.4193 126.889 59.3878 127.351C56.9639 127.905 55.9828 129.59 56.4445 132.405C56.6292 133.467 56.5946 134.61 56.3406 135.833L55.6135 138.464C55.475 138.972 55.4865 140.449 55.6481 142.895C55.8328 145.85 55.8905 148.019 55.8212 149.404C55.6135 153.374 54.39 157.274 52.1507 161.106C49.6345 165.375 48.134 168.884 47.6492 171.63C46.9566 175.531 47.3029 178.681 48.688 181.082C49.4267 182.328 50.4078 183.586 51.6313 184.855L52.7394 187.59C53.0164 188.467 52.9241 188.952 52.4624 189.044C51.5852 189.229 49.9115 189.771 47.4414 190.671C44.1865 191.872 41.2431 193.152 38.6115 194.514C36.3953 195.668 33.2789 198.369 29.2621 202.615C26.8613 205.154 24.3566 208.016 21.748 211.201C21.5402 211.455 21.3094 211.49 21.0554 211.305C20.8477 211.144 20.7207 210.936 20.6745 210.682L20.0859 207.67C19.9704 206.654 19.9127 204.923 19.9127 202.477C19.9127 200.654 22.4405 198.011 27.4961 194.549L35.0449 189.91C38.3922 185.571 40.4929 182.489 41.347 180.666C41.9011 179.466 41.878 177.862 41.2778 175.854C40.9315 174.631 40.1812 172.807 39.027 170.384C38.1498 168.514 38.0574 165.722 38.75 162.006C39.4656 158.059 40.8853 154.274 43.0091 150.65C44.7636 147.627 46.1602 143.438 47.199 138.083L48.8958 129.463Z" fill="#6791B9"/>
<path d="M54.8517 132.509C55.1287 132.094 55.4288 131.794 55.752 131.609L56.3407 131.332L56.4445 132.405C56.6292 133.467 56.5946 134.61 56.3407 135.833L55.6135 138.464C55.475 138.972 55.4865 140.449 55.6481 142.895C55.8328 145.85 55.8905 148.019 55.8212 149.404C55.6135 153.374 54.39 157.274 52.1508 161.106C49.6345 165.375 48.134 168.884 47.6492 171.63C46.9567 175.531 47.3029 178.681 48.688 181.082C49.4267 182.328 50.4078 183.586 51.6313 184.855L52.7394 187.59C53.0164 188.467 52.9241 188.952 52.4624 189.044C51.5852 189.229 49.9115 189.771 47.4414 190.671C44.1865 191.872 41.2432 193.153 38.6115 194.514C36.4877 195.599 31.3167 200.607 23.0984 209.539C22.7522 209.239 22.4982 208.859 22.3366 208.397C22.0135 207.52 22.4636 205.893 23.6871 203.516C24.8414 201.277 28.0502 198.103 33.3135 193.995C39.5695 189.125 43.113 186.24 43.9441 185.34C45.4908 183.655 45.9525 180.943 45.3292 177.204L44.7059 172.98C44.6135 171.457 44.8559 170.199 45.4331 169.207C46.7027 167.037 48.1686 162.617 49.8307 155.947C51.4236 149.577 52.4624 144.188 52.9472 139.78C53.3396 136.225 53.9745 133.802 54.8517 132.509Z" fill="#567C9D"/>
<path d="M87.0897 95.7771L94.4653 96.5734L76.1475 116.999C73.9544 119.261 71.5997 121.223 69.0835 122.885C70.3301 120.554 70.9072 118.546 70.8149 116.861C70.7687 115.314 70.2031 114.403 69.1181 114.126C72.6732 111.656 75.9166 108.979 78.8484 106.094C82.4265 102.609 85.1736 99.1699 87.0897 95.7771Z" fill="#567C9D"/>
<path d="M55.8558 96.1579C52.4623 92.2805 49.9345 88.9684 48.2724 86.2219C47.0489 84.2139 47.0951 82.8753 48.4109 82.2059L50.7656 81.8251L53.8474 85.9103C56.3406 88.7723 58.6722 90.561 60.8421 91.2765C63.1737 92.015 64.7319 93.2037 65.5168 94.8424C65.9093 95.6502 66.3133 97.5312 66.7288 100.485C67.5368 97.7389 69.9491 93.7691 73.9659 88.5761C76.7592 84.9986 78.9638 82.4021 80.5797 80.7865L81.8609 86.1873C81.5839 88.8184 80.1065 92.1074 77.4286 96.0541C75.7204 98.5698 73.7697 101.028 71.5766 103.428C70.9764 104.882 70.0876 105.586 68.9103 105.54C68.0562 105.494 66.4864 104.928 64.201 103.844C62.3542 102.99 59.5725 100.428 55.8558 96.1579Z" fill="#6791B9"/>
<path d="M80.5798 80.7865L81.861 86.1873C81.6302 88.6338 80.3374 91.6573 77.9827 95.2578C76.3899 97.7043 74.4969 100.162 72.3039 102.632C72.9041 100.116 73.1696 98.2928 73.1003 97.1619C73.008 95.2924 72.1654 93.9768 70.5725 93.2152C72.2577 90.7456 74.3238 88.0452 76.7708 85.114C78.6407 82.8522 79.9103 81.4097 80.5798 80.7865Z" fill="#567C9D"/>
<path d="M50.7656 81.8251L52.22 83.9023C53.4204 85.4949 54.6439 86.8797 55.8904 88.0568C53.4896 87.1797 51.966 88.0337 51.3196 90.6187C49.9345 88.7723 48.9188 87.3067 48.2724 86.2219C47.0489 84.2139 47.0951 82.8753 48.4109 82.2059L50.7656 81.8251Z" fill="#567C9D"/>
<path d="M4.53827 29.7908L50.1424 62.0915L55.8213 76.3551C55.1288 78.4554 53.7898 80.498 51.8045 82.4829C48.7573 85.4833 44.7752 87.5721 39.8581 88.7492C37.919 89.28 36.0376 89.4762 34.2139 89.3377C32.2978 89.1992 31.0397 88.7261 30.4395 87.9183C29.77 87.0412 24.8183 77.7053 15.5844 59.9105C6.30426 42.0233 1.45644 32.4681 1.04091 31.2448C0.602302 29.9062 0.694641 29.0753 1.31793 28.7522C1.98739 28.3829 3.06084 28.7291 4.53827 29.7908Z" fill="#DBDCDC"/>
<path d="M10.3209 33.9106L50.1423 62.0915L55.8212 76.3551C55.1286 78.4554 53.7897 80.498 51.8044 82.4829C48.8034 85.4372 44.9021 87.5144 40.1004 88.7146C40.6775 88.5299 41.5317 88.0452 42.6628 87.2605C45.3868 85.4372 47.7646 82.8522 49.796 79.5056C48.8496 78.1438 35.6912 62.9455 10.3209 33.9106Z" fill="#B4B4B5"/>
<path d="M122.132 110.56C125.434 118.5 126.357 126.474 124.903 134.483C123.587 141.753 120.563 148.088 115.83 153.489C111.236 158.751 105.973 162.075 100.04 163.46C93.7842 164.937 88.0015 163.887 82.692 160.309C77.6825 156.94 74.393 152.22 72.8232 146.15C71.415 140.772 71.4265 134.713 72.8578 127.974C74.1736 121.835 76.459 115.915 79.714 110.214C82.8997 104.675 86.4086 100.382 90.2407 97.335L110.913 94.2192L122.132 110.56Z" fill="#F9BE00"/>
<path d="M122.133 110.56C124.857 117.115 125.953 123.75 125.422 130.467C124.937 136.583 123.171 142.261 120.124 147.5C117.215 152.508 113.522 156.49 109.043 159.444C104.519 162.467 99.8556 164.002 95.054 164.048C95.9774 163.01 96.416 161.048 96.3698 158.163C96.3006 155.047 96.6699 152.774 97.4779 151.343C101.264 150.627 104.657 147.338 107.658 141.476C110.521 135.821 112.171 129.555 112.61 122.677C113.049 115.222 111.848 109.187 109.009 104.571C105.685 99.216 100.525 96.6426 93.5304 96.8503L110.913 94.2192L122.133 110.56Z" fill="#D7A400"/>
<path d="M125.734 126.901C125.942 130.894 125.468 135.187 124.314 139.78C124.499 135.648 123.425 131.39 121.094 127.005C118.716 122.55 115.634 119.065 111.848 116.549C106.631 113.041 100.271 111.46 92.7686 111.806C85.0121 112.153 79.3101 114.484 75.6627 118.8C76.4476 116.745 77.4403 114.587 78.6407 112.326L80.1643 109.521C82.0572 107.052 85.0005 105.148 88.9942 103.809C93.1495 102.447 97.4548 102.055 101.91 102.632C106.92 103.278 111.352 105.09 115.207 108.067C119.616 111.506 122.906 116.261 125.076 122.331L125.734 126.901Z" fill="#152139"/>
<path d="M83.6962 122.296C88.6133 120.842 93.7266 120.819 99.0361 122.227C104.646 123.704 109.274 126.508 112.922 130.64C117.031 135.279 119.339 141.037 119.847 147.915L116.246 152.762C113.406 156.293 110.913 158.798 108.766 160.275C111.421 154.551 111.19 149.369 108.074 144.73C105.327 140.668 101.091 137.829 95.3656 136.214C89.7329 134.621 84.7581 134.771 80.4412 136.664C75.6165 138.787 73.1349 142.618 72.9964 148.158C71.7036 145.965 71.2188 142.365 71.542 137.356L72.4077 130.501C74.8316 126.555 78.5944 123.82 83.6962 122.296Z" fill="#152139"/>
<path d="M125.076 122.331L125.665 126.901C125.826 130.894 125.33 135.187 124.176 139.78C124.36 135.602 123.379 131.436 121.232 127.282C119.062 122.989 116.096 119.584 112.333 117.069L111.987 113.745C111.571 110.883 110.786 107.894 109.632 104.778C113.026 106.279 115.98 108.402 118.497 111.149C121.313 114.195 123.506 117.923 125.076 122.331Z" fill="#0B132A"/>
<path d="M108.974 159.825C111.791 153.801 111.04 148.25 106.723 143.172C109.401 139.156 111.052 134.54 111.675 129.324C116.569 134.148 119.293 140.345 119.847 147.915L116.246 152.901C113.43 156.432 111.006 158.74 108.974 159.825Z" fill="#0B132A"/>
<path d="M100.421 158.717C99.6825 160.886 96.0466 166.553 89.5136 175.715C82.8883 185.04 79.2293 189.402 78.5368 188.802C77.8442 188.225 77.9596 182.466 78.883 171.526C79.7833 160.84 80.6029 154.412 81.3416 152.243C82.011 150.258 83.5115 148.885 85.8431 148.123C88.1747 147.361 90.6563 147.431 93.288 148.331C95.9428 149.231 97.9627 150.696 99.3478 152.728C100.733 154.735 101.091 156.732 100.421 158.717Z" fill="#F9BE00"/>
<path d="M97.2008 150.754C98.7013 151.7 99.7402 152.878 100.317 154.285C100.894 155.693 100.929 157.17 100.421 158.717C99.6824 160.84 96.9584 165.375 92.2491 172.323C86.9858 180.055 82.7151 185.328 79.437 188.144C82.5073 183.343 85.6122 177.793 88.7518 171.492C92.8147 163.391 95.6311 156.478 97.2008 150.754Z" fill="#D7A400"/>
<path d="M94.6385 64.2034L96.543 64.2726C98.1359 64.4573 99.6826 64.815 101.183 65.3458C105.985 67.0999 109.471 70.4235 111.641 75.3165C114.388 81.4328 114.491 86.9374 111.952 91.8304C109.274 96.9542 104.484 99.5623 97.5818 99.6546C91.2104 99.7238 86.4434 96.6311 83.2808 90.3763C82.0573 87.9298 81.3416 85.4372 81.1339 82.8984C80.9261 80.4518 81.2377 78.6285 82.0688 77.4283L94.6385 64.2034Z" fill="#F9BE00"/>
<path d="M94.6384 64.2034L96.5429 64.2726C98.1358 64.4573 99.6825 64.815 101.183 65.3458C105.985 67.0999 109.47 70.4235 111.64 75.3165C113.949 80.4403 114.341 85.241 112.818 89.7186C111.271 94.3346 108.074 97.3696 103.226 98.8237C105.257 96.3541 106.342 93.4345 106.481 90.0648C106.619 86.8566 105.881 83.8216 104.265 80.9596C102.58 78.0053 100.248 75.8012 97.2701 74.3471C93.969 72.7546 90.2869 72.3276 86.224 73.0662L94.6384 64.2034Z" fill="#D7A400"/>
<path d="M138.442 121.535L127.604 115.199C123.402 112.822 119.224 108.944 115.069 103.567C111.629 99.1584 109.02 94.9231 107.243 90.861C106.989 90.2148 107.127 89.6955 107.658 89.3031C108.212 88.9107 108.709 89.0031 109.147 89.5801C112.218 93.7345 115.784 97.5081 119.847 100.901C122.733 103.324 127.442 106.129 133.975 109.314L145.229 114.784C146.36 115.499 146.903 116.238 146.856 116.999C146.764 118.13 147.203 119.342 148.172 120.634C148.934 121.673 149.904 122.816 151.081 124.062C152.166 125.216 153.643 127.085 155.513 129.67C157.753 132.74 159.703 138.475 161.365 146.877C162.612 153.178 163.466 159.536 163.928 165.952C164.228 170.361 164.009 173.742 163.27 176.096C162.554 178.312 162.277 180.112 162.439 181.497C163.131 187.521 166.963 192.564 173.935 196.626C176.013 197.826 178.575 199.038 181.622 200.261C184.531 201.438 186.112 202.108 186.366 202.269C187.59 203.054 188.386 205.408 188.756 209.332C188.94 211.294 188.998 213.175 188.929 214.975C188.259 214.075 187.428 213.152 186.435 212.205C184.496 210.313 182.8 209.274 181.345 209.089C180.191 208.951 177.686 207.278 173.831 204.069C169.722 200.631 166.132 198.496 163.062 197.665C161.215 197.134 159.138 196.891 156.829 196.938L152.778 196.591C151.854 196.222 151.716 195.322 152.362 193.891C152.685 193.176 153.597 191.698 155.098 189.46C156.206 187.798 156.852 186.125 157.037 184.44C157.222 182.593 156.852 180.562 155.929 178.347L151.947 169.38C150.215 165.341 149.303 162.456 149.211 160.725C149.165 159.871 149.407 157.182 149.938 152.658C150.354 148.873 150.319 146.173 149.834 144.557C149.119 142.111 148.669 140.114 148.484 138.568C148.253 136.537 148.426 134.898 149.003 133.652C149.557 132.452 149.488 130.801 148.796 128.701C148.311 127.247 147.607 125.747 146.683 124.2C146.175 123.346 145.564 122.989 144.848 123.127L143.117 123.785C142.701 123.877 141.143 123.127 138.442 121.535Z" fill="#6791B9"/>
<path d="M121.44 102.182C118.855 100.982 116.511 101.155 114.411 102.701C111.294 98.5929 108.905 94.6462 107.243 90.861C106.989 90.2148 107.127 89.6955 107.658 89.3031C108.212 88.9107 108.709 89.0031 109.147 89.5801C112.218 93.7345 115.784 97.5081 119.847 100.901L121.44 102.182Z" fill="#567C9D"/>
<path d="M145.783 119.527C146.129 118.996 144.998 117.542 142.39 115.164C139.989 112.949 138.027 111.402 136.503 110.525L141.836 113.018C143.521 113.803 144.652 114.391 145.229 114.784C146.36 115.499 146.903 116.238 146.856 116.999C146.764 118.13 147.203 119.342 148.172 120.634C148.934 121.673 149.904 122.816 151.081 124.062C152.166 125.216 153.643 127.085 155.513 129.67C157.753 132.74 159.703 138.475 161.365 146.877C162.612 153.178 163.466 159.536 163.928 165.952C164.228 170.361 164.009 173.742 163.27 176.096C162.554 178.312 162.277 180.112 162.439 181.497C163.131 187.521 166.963 192.564 173.935 196.626C176.013 197.826 178.575 199.038 181.622 200.261C184.531 201.438 186.112 202.108 186.366 202.269C187.59 203.054 188.398 205.408 188.79 209.332C188.975 211.294 189.044 213.175 188.998 214.975C188.305 214.075 187.463 213.152 186.47 212.205C184.508 210.313 182.8 209.274 181.345 209.089C180.768 209.02 180.364 208.766 180.133 208.328L179.614 206.735C179.083 204.912 177.813 203.4 175.805 202.2C174.143 201.231 171.88 199.592 169.018 197.284C166.825 195.53 165.267 194.549 164.343 194.341C162.958 194.041 161.792 192.795 160.846 190.602C159.83 188.248 159.495 185.686 159.842 182.916C160.165 180.424 160.188 177.25 159.911 173.396L159.115 165.641C158.722 162.387 158.145 158.636 157.383 154.389C156.598 150.143 155.987 146.207 155.548 142.584C155.34 140.414 154.832 137.737 154.024 134.552C153.078 130.928 152.085 128.17 151.046 126.278C150.354 125.008 149.015 123.635 147.03 122.158C145.691 121.142 145.275 120.265 145.783 119.527Z" fill="#567C9D"/>
<path d="M141.247 77.6361C140.97 78.2131 140.647 80.2326 140.277 83.6946C139.954 86.9028 139.781 89.3608 139.758 91.0687C139.758 92.015 139.158 93.1921 137.957 94.6L135.36 97.1273L134.46 99.1353C134.16 99.8046 133.548 99.6315 132.625 98.616C130.593 96.3772 126.957 94.4154 121.717 92.7305L116.384 91.3111C114.999 90.8726 113.914 90.0878 113.129 88.9569C111.675 86.8797 110.024 84.7217 108.178 82.4829C105.615 79.3671 103.549 77.2552 101.979 76.1474C101.402 75.7319 101.137 75.3165 101.183 74.9011C101.229 74.4856 101.564 74.2317 102.187 74.1394C103.872 73.8394 106.262 74.7164 109.355 76.7705C112.91 79.1478 119.974 84.537 130.547 92.9382C130.478 92.3151 130.466 91.6111 130.512 90.8264C130.628 89.2569 130.986 88.0799 131.586 87.2951C132.14 86.5796 133.144 84.5486 134.598 81.202C136.099 77.7168 136.988 75.755 137.265 75.3165L139.896 75.3857C141.12 76.1935 141.57 76.9437 141.247 77.6361Z" fill="#6791B9"/>
<path d="M117.839 83.0368C115.599 82.3213 113.937 82.2059 112.852 82.6906C111.721 83.2215 111.202 84.4793 111.294 86.4642C107.439 81.225 104.334 77.7861 101.979 76.1474C101.402 75.7319 101.137 75.3165 101.183 74.9011C101.229 74.4856 101.564 74.2317 102.187 74.1394C103.872 73.8394 106.262 74.7164 109.355 76.7705L117.839 83.0368Z" fill="#567C9D"/>
<path d="M141.247 77.6361C140.97 78.2131 140.647 80.2326 140.277 83.6946C139.954 86.9028 139.781 89.3608 139.758 91.0687C139.758 91.7381 139.435 92.5574 138.788 93.5268C139.181 91.3572 138.869 89.2454 137.853 87.1913C136.838 85.1833 135.452 83.8677 133.698 83.2445L135.741 78.5362L137.265 75.3165L139.896 75.3857C141.12 76.1935 141.57 76.9437 141.247 77.6361Z" fill="#567C9D"/>
<path d="M166.075 5.52194C166.005 12.6537 164.793 25.1055 162.439 42.8773C160.246 59.2181 158.78 68.4963 158.041 70.712C157.233 73.1123 154.636 75.0742 150.25 76.5974C146.048 78.0746 142.632 78.4208 140 77.6361C135.753 76.3897 132.613 74.2433 130.582 71.1967C128.55 68.1963 127.904 64.7458 128.642 60.8452C129.243 57.7294 134.321 48.2088 143.878 32.2834C153.043 17.0043 158.953 7.8415 161.608 4.79491C163.985 2.07144 165.324 0.721252 165.624 0.744332C165.948 0.767413 166.098 2.35995 166.075 5.52194Z" fill="#DBDCDC"/>
<path d="M165.555 0.398134C165.809 0.190412 165.982 1.06746 166.075 3.02928C166.144 4.85261 166.121 6.58363 166.005 8.22232C164.805 23.086 163.882 33.5529 163.235 39.6229C161.596 54.879 159.865 65.242 158.041 70.712C157.21 73.1585 154.59 75.178 150.181 76.7705C145.887 78.3169 142.493 78.6054 140 77.636L137.68 76.5974C139.342 77.0129 140.727 77.0129 141.835 76.5974C142.92 76.2051 143.832 75.3973 144.571 74.174L154.925 39.8653C161.065 19.2316 164.609 6.07586 165.555 0.398134Z" fill="#B4B4B5"/>
<path d="M67.733 43.4312L76.8746 42.9811C79.6217 43.1888 81.6762 43.6158 83.0382 44.2621L91.8682 48.2434L88.5786 71.9583C86.4317 74.5433 83.65 77.3129 80.2334 80.2672C76.032 83.9139 73.1464 85.691 71.5766 85.5987C70.584 85.5526 68.9103 84.6178 66.5556 82.7945C63.9471 80.7865 61.5347 78.4323 59.3185 75.7319C53.201 68.3001 51.0542 61.4453 52.8779 55.1675C54.7016 48.8666 59.6533 44.9545 67.733 43.4312Z" fill="#F9BE00"/>
<path d="M81.8956 56.8985C80.7644 50.9438 78.1212 46.2585 73.9659 42.8426L79.4024 43.2581C80.9953 43.535 82.2072 43.8697 83.0383 44.2621L91.8683 48.2434L88.5787 71.9583C86.4318 74.5433 83.65 77.3129 80.2335 80.2672C76.032 83.9139 73.1464 85.6911 71.5767 85.5987L71.1611 85.5295L76.1821 79.5748C78.0981 77.2206 79.5294 75.0972 80.4759 73.2047C82.5073 67.9654 82.9806 62.5301 81.8956 56.8985Z" fill="#D7A400"/>
<path d="M52.6702 55.9984C53.5935 56.1599 55.0825 59.3335 57.1371 65.5189C59.0531 71.3121 60.0804 75.1319 60.2189 76.9783C60.3343 78.4785 59.2378 78.5823 56.9293 77.2899C54.6208 75.9974 52.8548 74.2202 51.6313 71.9583C49.5768 68.1963 48.7688 64.4803 49.2074 60.8106C49.6229 57.3024 50.7772 55.6983 52.6702 55.9984Z" fill="#E85377"/>
<path d="M87.0897 51.3939H91.6952C94.6962 54.1173 95.9197 57.6255 95.3657 61.9184C94.904 65.542 93.6805 68.1847 91.6952 69.8465C88.5556 72.5469 85.947 74.0932 83.8694 74.4856C81.4224 74.9472 79.9103 73.7586 79.3332 70.9197C78.4791 66.8345 78.8715 62.7378 80.5105 58.6295C82.1496 54.5443 84.3426 52.1324 87.0897 51.3939Z" fill="#E85377"/>
<path d="M62.1235 50.1475C62.7468 51.8324 62.7121 52.9172 62.0196 53.4018C61.3271 53.8865 60.6576 53.2864 60.0112 51.6016C59.411 50.009 57.2872 46.8471 53.6398 42.1156C50.0847 37.4996 47.7993 34.8569 46.7836 34.1876C45.9756 33.6567 43.5863 35.5955 39.6157 40.0038C36.7301 43.2119 34.0177 46.5239 31.4783 49.9398C30.4395 51.3477 29.2275 53.1595 27.8424 55.3752C26.7113 56.9908 25.5455 57.9717 24.3451 58.3179C22.9138 58.7334 21.6672 57.8909 20.6053 55.7906C19.5434 53.7134 19.3934 51.9709 20.1552 50.563C20.8939 49.2012 24.0796 45.4276 29.7123 39.2421C35.3681 33.0797 39.0386 29.3638 40.7238 28.0944C42.3628 26.8481 43.7825 26.3057 44.983 26.4672C46.1372 26.6288 47.303 27.4481 48.4803 28.9253C50.1193 31.0256 52.4855 34.4068 55.5789 39.069C59.2494 44.6314 61.4309 48.3242 62.1235 50.1475Z" fill="#6791B9"/>
<path d="M62.1234 50.1475C62.7466 51.8324 62.712 52.9172 62.0195 53.4018C61.3269 53.8865 60.6575 53.2864 60.0111 51.6016C59.4109 50.009 57.2871 46.8471 53.6397 42.1156C50.0846 37.4996 47.7992 34.8569 46.7835 34.1876C45.9755 33.6567 43.5862 35.5955 39.6156 40.0038C36.73 43.2119 34.0175 46.5239 31.4782 49.9398C30.4394 51.3477 29.2274 53.1595 27.8423 55.3752C26.7112 56.9908 25.5454 57.9717 24.345 58.3179C24.622 58.0179 24.9105 57.5101 25.2107 56.7946C25.8109 55.3175 25.984 53.6557 25.7301 51.8093C25.4992 49.8706 28.154 45.6469 33.6943 39.1383C38.4729 33.5298 41.8202 30.01 43.7363 28.5791C44.7058 27.8405 45.7331 27.6212 46.8181 27.9213C47.5799 28.1521 48.1339 28.4868 48.4802 28.9253C50.1192 31.0256 52.4854 34.4068 55.5788 39.069C59.2493 44.6314 61.4308 48.3242 62.1234 50.1475Z" fill="#567C9D"/>
<path d="M76.3899 21.378C76.7592 19.2316 77.4056 18.3084 78.329 18.6084C79.0446 18.8392 79.7949 19.6932 80.5798 21.1703C86.2125 31.5795 90.2754 38.7921 92.7686 42.808C94.1537 45.0237 94.2114 47.3664 92.9417 49.8359C91.926 51.7978 90.6794 53.0903 89.202 53.7134C88.3248 54.0596 86.4203 51.1861 83.4885 45.093L79.3332 35.8493L77.775 42.2887L75.3164 51.4977C74.9702 52.5363 74.4507 52.9518 73.7582 52.744C73.0657 52.5132 72.8233 51.9247 73.031 50.9784L74.6585 36.6456C75.605 27.6674 76.1821 22.5782 76.3899 21.378Z" fill="#6791B9"/>
<path d="M92.7686 42.808C94.1536 45.0237 94.2114 47.3664 92.9417 49.8359C91.926 51.7978 90.6794 53.0903 89.2019 53.7134C88.9942 53.7827 88.1978 52.8941 86.8127 51.0476C85.3583 49.0858 84.5042 47.5972 84.2502 46.5816C87.2744 49.4205 89.0981 49.0743 89.7214 45.543C90.2985 42.2887 89.7791 38.7574 88.1631 34.9492L92.7686 42.808Z" fill="#567C9D"/>
<path d="M86.8473 67.5616L91.522 67.3885C92.7916 67.6654 93.1264 68.2309 92.5262 69.0848C91.5335 70.5158 89.9868 71.7968 87.8861 72.9277C85.9239 73.9663 84.2502 74.4856 82.8652 74.4856C81.18 74.4856 80.1758 73.6893 79.8526 72.0968C79.6679 71.0582 80.3374 70.1119 81.861 69.2579C83.1768 68.4963 84.8389 67.9308 86.8473 67.5616Z" fill="#ED8599"/>
<path d="M53.9168 75.0742C53.5012 74.5202 53.4782 73.9894 53.8475 73.4816C54.1938 73.0431 54.7709 72.72 55.5789 72.5123C57.5873 72.0276 58.8454 72.4546 59.3533 73.7932C59.8611 75.1088 60.1266 76.1012 60.1497 76.7705C60.1728 77.3706 59.9881 77.8092 59.5957 78.0861C59.2032 78.3631 58.3952 78.2246 57.1717 77.6707C55.8328 77.0475 54.7478 76.182 53.9168 75.0742Z" fill="#ED8599"/>
<path d="M44.7406 93.596C43.7017 92.4651 42.7783 91.2765 41.9704 90.0301L41.0701 88.4722L42.005 87.9183L42.8707 89.3031C43.6094 90.3879 44.4635 91.4265 45.4331 92.4189C48.5496 95.604 52.2201 97.7735 56.4446 98.9276L59.3533 99.5161L61.2924 101.593C59.5841 101.524 57.9451 101.27 56.3753 100.832C51.943 99.6084 48.0648 97.1965 44.7406 93.596Z" fill="#0D131A"/>
<path d="M77.0132 97.7505C77.5903 96.9196 77.925 96.2733 78.0174 95.8117C80.0027 94.8424 82.0111 93.6999 84.0425 92.3843L84.7004 93.3883C82.0688 95.0962 79.5063 96.5503 77.0132 97.7505Z" fill="#0D131A"/>
<path d="M57.6565 99.4815L58.7646 99.9662C58.072 101.559 57.6334 104.167 57.4487 107.79C57.2641 111.829 57.4834 115.822 58.1067 119.769L56.6523 120.738C56.029 116.561 55.8674 112.268 56.1675 107.86C56.4215 103.959 56.9178 101.166 57.6565 99.4815Z" fill="#0D131A"/>
<path d="M60.2535 132.475C59.4917 131.09 58.8222 129.509 58.2451 127.732C58.8684 127.455 59.434 127.27 59.9419 127.178C60.4728 128.747 61.1076 130.201 61.8464 131.54C64.4088 136.294 67.8946 139.041 72.3038 139.78L72.096 140.957C66.7865 140.056 62.839 137.229 60.2535 132.475Z" fill="#0D131A"/>
<path d="M58.8684 77.8784L59.4571 77.8092C59.6187 78.8016 60.2073 80.9019 61.2231 84.1101C62.4697 87.9875 63.647 91.0457 64.7551 93.2844L63.3353 92.3497C62.2734 90.2263 61.2577 87.399 60.2881 83.8677C59.5494 81.2596 59.0762 79.2632 58.8684 77.8784Z" fill="#0D131A"/>
<path d="M70.3993 43.1196L69.3259 43.6389C67.179 39.3922 63.2084 34.1068 57.4141 27.7828C49.6345 19.3354 42.7552 14.6155 36.7762 13.6231C32.921 12.9999 29.6084 14.0732 26.8382 16.8428C23.8141 19.8432 22.2905 24.5862 22.2674 31.0717C22.2674 34.8569 22.7522 38.8382 23.7217 43.0157C23.791 43.2927 23.5717 43.3273 23.0638 43.1196C22.5329 42.8888 22.2327 42.6465 22.1635 42.3926C21.1478 38.1227 20.6399 34.0606 20.6399 30.2062C20.6399 23.4668 22.2789 18.4584 25.557 15.181C28.3272 12.4114 31.9976 11.3959 36.5685 12.1344C42.8475 13.15 50.0038 18.0083 58.0374 26.7096C64.0625 33.1951 68.1832 38.6651 70.3993 43.1196Z" fill="#0D131A"/>
<path d="M40.9314 27.9213L40.3428 28.406L26.2148 16.6351L26.5957 16.185L40.9314 27.9213Z" fill="#0D131A"/>
<path d="M21.194 29.7908L21.6788 29.4446L31.5129 37.7188L30.9935 38.2381L21.194 29.7908Z" fill="#0D131A"/>
<path d="M37.3649 42.5311L37.8497 41.9425L53.5358 53.6096L53.1895 54.0942L37.3649 42.5311Z" fill="#0D131A"/>
<path d="M59.9765 30.1716L60.2535 30.587L50.1423 31.2102L50.0385 30.5178L59.9765 30.1716Z" fill="#0D131A"/>
<path d="M39.2694 43.535L40.1005 44.1582L42.1088 56.2407L41.4163 55.9291L39.2694 43.535Z" fill="#0D131A"/>
<path d="M79.6795 99.5507L81.2377 94.3577L81.8264 94.5308L80.1989 99.9315L80.1296 99.9662C66.6943 110.283 59.0416 115.845 57.1718 116.653L57.2756 115.545C59.0763 114.784 66.5442 109.452 79.6795 99.5507Z" fill="#0D131A"/>
<path d="M68.2524 108.621L68.7026 108.137L70.6764 113.018L70.1223 113.78L68.2524 108.621Z" fill="#0D131A"/>
<path d="M63.7509 134.794C64.6512 132.879 65.8516 130.547 67.3521 127.801C69.5913 123.739 71.0572 121.535 71.7497 121.188L72.8232 120.427C72.223 120.958 70.988 122.942 69.1181 126.381C67.5945 129.197 65.967 132.348 64.2356 135.833L63.7509 134.794Z" fill="#0D131A"/>
<path d="M131.793 131.575C130.062 130.236 128.435 128.782 126.911 127.212L125.076 125.17L125.318 123.82L127.188 125.793C128.735 127.316 130.374 128.724 132.105 130.017C137.599 134.102 142.99 136.283 148.276 136.56L148.172 137.425L148.241 138.291C142.747 138.06 137.265 135.821 131.793 131.575Z" fill="#0D131A"/>
<path d="M166.386 79.1594L167.39 78.4669C169.93 82.1598 172.111 87.0989 173.935 93.2844C176.336 101.455 176.901 108.771 175.632 115.234C174.847 119.204 173.254 122.792 170.853 126.001C168.683 128.863 165.763 131.551 162.092 134.067C160.8 134.921 159.611 135.602 158.526 136.11L157.937 134.69C158.976 134.229 159.969 133.675 160.915 133.029C167.725 128.643 171.938 122.423 173.554 114.368C174.824 107.998 174.42 100.959 172.342 93.2498C170.726 87.272 168.741 82.5752 166.386 79.1594Z" fill="#0D131A"/>
<path d="M135.776 96.4003L136.157 95.881C140.15 97.5889 146.787 99.3776 156.067 101.247C164.863 103.001 171.026 103.878 174.558 103.878V104.467C170.541 104.467 164.516 103.717 156.483 102.216C147.272 100.485 140.37 98.5467 135.776 96.4003Z" fill="#0D131A"/>
<path d="M157.002 101.697H157.625C157.741 103.774 157.268 106.717 156.206 110.525C155.052 114.634 153.713 117.749 152.189 119.873L151.704 119.527C153.089 117.611 154.371 114.311 155.548 109.625C156.517 105.771 157.002 103.128 157.002 101.697Z" fill="#0D131A"/>
<path d="M146.649 117.069C148.172 117.576 149.869 118.315 151.739 119.284L155.271 121.154C156.033 121.5 156.46 121.765 156.552 121.95L157.072 123.716L160.223 134.206L159.634 134.379L155.79 122.469C151.843 120.023 148.726 118.407 146.441 117.623L146.649 117.069Z" fill="#0D131A"/>
<path d="M120.817 85.4256C124.118 86.0719 128.008 86.3142 132.486 86.1527L131.62 87.4682L122.271 86.8797L120.817 85.4256Z" fill="#0D131A"/>
<path d="M162.75 3.34086C162.958 3.24854 162.82 3.54858 162.335 4.24099L161.296 5.38346L159.495 6.11049C154.094 8.37235 148.403 11.9959 142.424 16.9813C136.745 21.7127 131.378 27.1712 126.322 33.3567C121.244 39.5652 117.1 45.7507 113.891 51.9132C110.498 58.3987 108.501 64.1687 107.901 69.2233L106.723 69.0848C107.301 64.0533 109.24 58.1563 112.541 51.3938C115.934 44.4236 120.17 37.7996 125.249 31.5218C130.397 25.1747 135.983 19.647 142.009 14.9387C147.641 10.5534 153.286 7.17218 158.941 4.79491L162.75 3.34086Z" fill="#0D131A"/>
<path d="M187.647 28.5444C186.955 15.9196 184.069 8.0146 178.991 4.82953C175.736 2.82155 171.453 2.48689 166.144 3.82554C166.051 3.84862 165.982 3.61782 165.936 3.13314C165.913 2.62537 165.948 2.35995 166.04 2.33687C171.996 0.813574 176.659 1.10208 180.029 3.20238C182.823 4.95647 184.981 7.79534 186.505 11.719C188.028 15.7118 188.975 21.0088 189.344 27.6097C189.713 34.303 188.905 41.077 186.92 47.9318C185.42 53.0556 183.354 57.9256 180.722 62.5416C178.159 67.0422 175.505 70.8851 172.758 74.0702C169.687 77.6245 166.756 80.0479 163.962 81.3404C161.215 82.6098 157.764 83.7408 153.609 84.7332C149.338 85.7718 144.917 86.5219 140.346 86.9835V85.4949C144.64 84.9179 148.876 84.0754 153.055 82.9676C156.979 81.8828 160.303 80.7173 163.027 79.4709C169.26 76.5859 174.893 70.5735 179.925 61.4337C185.697 50.9784 188.271 40.0153 187.647 28.5444Z" fill="#0D131A"/>
<path d="M147.549 27.402L147.584 27.9905L128.989 28.8214L129.82 28.1982L147.549 27.402Z" fill="#0D131A"/>
<path d="M179.995 9.29555L182.834 7.70302L183.146 8.22232L180.272 9.81486C172.769 13.9462 167.829 16.7966 165.451 18.3661C165.174 18.5507 165.047 18.4584 165.07 18.0891C165.117 17.7429 165.232 17.5006 165.417 17.3621C166.894 16.3235 169.295 14.9271 172.619 13.173L179.995 9.29555Z" fill="#0D131A"/>
<path d="M176.393 34.1529C181.08 31.3141 184.993 29.3292 188.132 28.1982L188.34 28.7868C185.454 29.8023 181.484 31.9026 176.428 35.0877C170.911 38.5266 166.398 41.8617 162.889 45.093C162.612 45.3238 162.462 45.3007 162.439 45.0237C162.393 44.7468 162.519 44.4698 162.82 44.1928C166.328 40.8462 170.853 37.4996 176.393 34.1529Z" fill="#0D131A"/>
<path d="M173.173 55.5483C178.506 52.8018 182.43 51.1977 184.946 50.7361L185.085 51.3246C183.077 51.7862 179.325 53.3788 173.831 56.1022C167.621 59.2181 163.016 62.0223 160.015 64.515L159.634 64.4803C159.634 64.2495 159.749 64.0418 159.98 63.8572C163.027 61.226 167.425 58.4564 173.173 55.5483Z" fill="#0D131A"/>
<path d="M170.611 38.1689L171.234 38.1343L172.965 56.1368L171.927 56.6561L170.611 38.1689Z" fill="#0D131A"/>
<path d="M132.071 52.2594C132.278 52.144 132.405 52.2017 132.452 52.4325C132.475 52.6633 132.359 52.8479 132.105 52.9864C128.643 55.0405 124.683 57.7178 120.228 61.0183C115.75 64.2957 111.918 67.3423 108.732 70.1581L108.316 69.7426C117.089 61.8954 125.007 56.0676 132.071 52.2594Z" fill="#0D131A"/>
<path d="M120.782 85.4602L131.205 72.5469L132.105 73.2739L121.232 85.8411L120.782 85.4602Z" fill="#0D131A"/>
<path d="M152.328 83.937L154.544 75.1088L155.79 73.6893L152.882 84.0754L152.328 83.937Z" fill="#0D131A"/>
<path d="M55.8906 124.754C55.5443 125.331 54.5401 126.07 52.878 126.97C50.9158 128.055 49.7731 128.966 49.4499 129.705C49.2421 130.167 48.942 131.609 48.5496 134.033C47.9263 137.656 47.3722 140.403 46.8875 142.272C45.9871 145.78 44.8675 148.677 43.5286 150.962C42.0512 153.501 40.8969 156.201 40.0659 159.063C39.3041 161.717 38.9232 164.129 38.9232 166.299C38.9232 167.891 39.1425 169.184 39.5811 170.176L41.451 174.469C42.0512 176.085 42.3513 177.47 42.3513 178.624C42.3513 179.501 42.1897 180.262 41.8665 180.908C41.2201 182.339 40.1928 184.105 38.7847 186.205C37.3303 188.352 36.2453 189.702 35.5297 190.256L28.4657 194.895C24.3566 197.803 21.9096 200.157 21.1247 201.958C20.5245 203.319 20.4207 205.258 20.8131 207.774C21.2055 210.29 21.6441 211.12 22.1289 210.266C23.2832 208.282 25.557 205.5 28.9505 201.923C32.8057 197.861 35.9337 195.207 38.3345 193.96C40.3429 192.922 42.6168 191.952 45.1561 191.052L49.9693 189.494L52.0123 188.906C52.3355 188.79 52.474 188.56 52.4278 188.213C52.3586 187.844 52.0123 187.082 51.389 185.928C50.7657 184.797 50.3386 184.117 50.1078 183.886C49.0921 182.778 48.3533 181.774 47.8916 180.874C47.0837 179.304 46.6797 177.446 46.6797 175.3C46.6797 174.077 46.8067 172.819 47.0606 171.526C47.4069 169.611 47.9724 167.776 48.7573 166.022C49.2421 164.937 50.0155 163.506 51.0774 161.729C52.3701 159.536 53.2704 157.794 53.7783 156.501C54.6093 154.378 55.0941 152 55.2326 149.369L55.2673 147.915L55.0595 143.068L54.8864 139.849L55.0249 138.325L55.2326 137.668C55.7174 136.121 55.9598 134.829 55.9598 133.79L55.8559 132.509L55.7174 131.09C55.7174 128.759 56.8947 127.316 59.2494 126.762C60.496 126.508 62.5621 125.597 65.4477 124.027C69.7415 121.673 73.5389 118.8 76.8401 115.407L76.5977 117.415C72.6732 121.431 68.8412 124.327 65.1014 126.105C63.7394 126.774 61.8811 127.385 59.5264 127.939C58.5107 128.17 57.8181 128.77 57.4488 129.74C57.1025 130.617 57.0448 131.725 57.2756 133.063C57.4372 134.033 57.3911 134.967 57.1371 135.867L56.3753 138.014L56.1676 138.637C56.0752 139.006 56.0983 140.449 56.2368 142.965C56.4215 145.78 56.4677 148.169 56.3753 150.131C56.2137 153.155 55.9483 155.416 55.5789 156.917C55.2095 158.301 54.517 159.836 53.5013 161.521L50.5233 166.126C49.2998 168.157 48.538 170.026 48.2379 171.734C47.6839 174.804 47.7878 177.354 48.5496 179.385C48.9882 180.562 49.7961 181.785 50.9735 183.055C52.7048 184.924 53.6975 186.552 53.9514 187.936C54.1823 189.206 53.7898 189.944 52.7741 190.152C47.6262 191.283 42.9977 192.91 38.8885 195.034C36.6724 196.164 33.2789 199.442 28.7081 204.866C24.4374 209.874 22.0828 212.378 21.6441 212.378C20.7208 212.378 19.9705 211.155 19.3934 208.709C18.8624 206.424 18.7239 204.254 18.9778 202.2C19.3472 199.246 24.5644 194.987 34.6294 189.425C37.8844 185.271 39.9389 182.27 40.793 180.424C41.0239 179.893 41.1393 179.293 41.1393 178.624C41.1393 177.631 40.793 176.385 40.1005 174.885L38.0921 170.903C37.6073 169.841 37.3649 168.387 37.3649 166.541C37.3649 164.348 37.8151 161.81 38.7154 158.925C39.6388 155.947 40.8969 153.085 42.4898 150.339C43.7595 148.192 44.7406 145.376 45.4331 141.891L46.7143 133.825C47.1529 131.217 47.4877 129.682 47.7185 129.22C47.9955 128.597 48.6534 127.962 49.6923 127.316L52.3239 125.931C53.7783 125.147 54.6324 124.535 54.8864 124.097L55.3711 122.954C55.8098 121.685 56.156 120.888 56.41 120.565C57.1487 119.596 58.4645 118.765 60.3575 118.073C63.3585 117.011 67.3868 114.553 72.4424 110.698C78.9523 105.713 83.6617 100.647 86.5703 95.5001L87.6092 96.0887C84.7235 101.189 80.1527 106.267 73.8967 111.322C68.7027 115.522 64.4897 118.188 61.2578 119.319C59.5495 119.942 58.3375 120.623 57.6219 121.362C57.1833 121.8 56.8139 122.458 56.5138 123.335L55.8906 124.754Z" fill="#0D131A"/>
<path d="M55.1633 88.1606C53.8244 86.8912 52.5432 85.391 51.3197 83.66L52.2546 82.933C55.3942 87.249 58.326 89.8339 61.05 90.6879C63.1738 91.3803 64.6858 92.3959 65.5862 93.7345C66.2556 94.7039 66.7289 96.181 67.0059 98.1659C68.3217 94.9808 70.7687 91.1957 74.3469 86.8104C76.3783 84.3409 78.3175 82.1829 80.1643 80.3364L80.9953 81.2019C79.1947 83.0714 77.0709 85.5641 74.6239 88.6799C70.7687 93.5729 68.4487 97.3466 67.6638 100.001C67.3406 101.109 67.0059 101.536 66.6596 101.282L66.1402 100.728L66.0017 99.5853C66.0017 98.4313 65.667 97.1735 64.9975 95.8117C64.0279 93.7807 62.5851 92.4536 60.6691 91.8304C58.9146 91.2765 57.0794 90.0532 55.1633 88.1606Z" fill="#0D131A"/>
<path d="M55.3711 96.7811C52.0469 92.8344 49.5076 89.4185 47.7531 86.5335L47.303 85.7026L48.3764 85.2179L48.7919 85.9103C50.4079 88.5415 52.8895 91.7958 56.2368 95.6732C59.9535 99.92 62.7006 102.47 64.4781 103.324L67.6292 104.675L69.7068 104.813C70.2378 104.605 70.6649 104.074 70.988 103.22L71.1266 103.013C72.9041 101.12 74.6355 98.9852 76.3206 96.608C79.3448 92.3382 80.9953 88.8415 81.2724 86.118L81.9649 87.1913C81.5032 91.6227 78.2021 97.1504 72.0615 103.774L71.4036 105.228C71.1727 105.644 70.8842 105.921 70.5379 106.059C69.0605 106.636 66.8212 106.221 63.8202 104.813C61.9503 103.936 59.134 101.259 55.3711 96.7811Z" fill="#0D131A"/>
<path d="M48.9304 61.9531L31.9977 49.9744L32.6902 48.9358L49.0689 60.6029L48.9304 61.9531Z" fill="#0D131A"/>
<path d="M0.0020369 29.5138C0.0251218 28.8445 0.221343 28.3713 0.590701 28.0944C1.5141 27.3789 2.84148 27.6443 4.57284 28.8906L25.557 43.8466L24.5874 44.7121L4.19194 30.2755C3.47631 29.7677 2.86456 29.4446 2.35669 29.3061C1.98734 29.1907 1.72186 29.1907 1.56027 29.3061C1.28325 29.4907 1.29479 30.0793 1.59489 31.0717C1.98734 32.2488 6.80053 41.7117 16.0345 59.4604C25.2453 77.2552 30.197 86.6143 30.8896 87.5375C31.3975 88.2299 32.5286 88.6338 34.2831 88.7492C36.0375 88.8877 37.8497 88.6915 39.7196 88.1606C44.8444 86.9143 48.9189 84.664 51.943 81.4097C53.5589 79.6556 54.667 77.913 55.2672 76.182L56.3753 76.5628C55.5212 79.1709 54.517 81.1789 53.3627 82.5868C50.5233 86.0026 46.1833 88.2991 40.3428 89.4762C38.3576 90.0301 36.3376 90.2148 34.2831 90.0301C32.1131 89.8224 30.6703 89.2339 29.9547 88.2645C29.0082 86.9951 19.1971 68.1847 0.521447 31.8334C0.152089 31.0025 -0.021048 30.2293 0.0020369 29.5138Z" fill="#0D131A"/>
<path d="M30.4741 87.5375C33.3136 87.8144 36.7532 87.0066 40.7931 85.114C46.2411 82.5752 50.3502 78.7554 53.1204 73.6547L53.5359 74.5202C50.8811 79.8979 46.7374 83.7869 41.1047 86.1873C37.0879 87.9183 33.5098 88.6222 30.3702 88.2991L30.4741 87.5375Z" fill="#0D131A"/>
<path d="M89.2366 97.4043L89.9984 97.5427L90.6217 97.8197C85.6815 101.72 81.4108 107.502 77.8096 115.164C73.9082 123.473 72.1076 131.459 72.4077 139.122C72.7309 147.131 75.4549 153.397 80.5798 157.921L80.0603 160.032C77.3132 157.563 75.1433 154.551 73.5504 150.997C71.9345 147.396 71.0457 143.519 70.8841 139.364C70.584 131.725 72.4077 123.693 76.3552 115.268C79.9565 107.536 84.2503 101.582 89.2366 97.4043Z" fill="#0D131A"/>
<path d="M121.578 110.802L122.964 111.322C126.865 120.738 127.557 129.913 125.041 138.845C122.848 146.715 118.624 153.189 112.368 158.267C107.451 162.306 102.268 164.625 96.8199 165.225L97.5817 164.291L98.205 163.183C102.799 162.467 107.15 160.436 111.26 157.09C117.285 152.174 121.394 145.78 123.587 137.91C126.057 128.978 125.387 119.942 121.578 110.802Z" fill="#0D131A"/>
<path d="M114.376 106.994C119.385 110.479 123.079 115.545 125.457 122.192L124.73 122.469C122.398 115.984 118.797 111.045 113.926 107.652C110.555 105.275 106.77 103.763 102.568 103.117C98.2281 102.447 93.9459 102.747 89.7213 104.017C85.5199 105.263 82.438 107.179 80.4758 109.764L79.8525 109.279C81.9071 106.556 85.0928 104.548 89.4097 103.255C93.7265 101.94 98.1588 101.639 102.707 102.355C107 103.001 110.89 104.548 114.376 106.994Z" fill="#0D131A"/>
<path d="M116.696 120.254C120.851 124.57 123.495 130.063 124.626 136.733L123.864 136.871C122.756 130.386 120.182 125.031 116.142 120.808C112.079 116.584 106.92 113.86 100.664 112.637C95.5618 111.668 90.564 111.899 85.67 113.33C80.7991 114.714 77.4864 116.849 75.7319 119.734L75.4203 118.973C77.2671 115.972 80.6375 113.791 85.5315 112.429C90.4485 111.068 95.5503 110.883 100.837 111.876C107.254 113.122 112.541 115.915 116.696 120.254Z" fill="#0D131A"/>
<path d="M72.0615 130.294C74.4162 126.439 78.0636 123.716 83.0037 122.123C87.9439 120.508 93.1265 120.369 98.5514 121.708C104.854 123.231 109.921 126.312 113.753 130.951C117.585 135.567 119.743 141.21 120.228 147.881L119.432 147.95C118.97 141.464 116.881 135.96 113.164 131.436C109.424 126.935 104.496 123.946 98.3783 122.469C93.1149 121.177 88.0824 121.304 83.2808 122.85C78.5022 124.373 74.9818 126.993 72.7194 130.709L72.0615 130.294Z" fill="#0D131A"/>
<path d="M80.9607 136.041C84.862 134.54 89.2828 134.356 94.223 135.487C99.1631 136.618 103.18 138.741 106.273 141.857C108.628 144.211 110.105 146.877 110.706 149.854C111.306 152.854 110.971 155.97 109.701 159.202L108.974 158.89C110.175 155.82 110.498 152.866 109.944 150.027C109.367 147.188 107.958 144.638 105.719 142.376C102.718 139.376 98.8284 137.333 94.0498 136.248C89.2713 135.14 85.0121 135.314 81.2723 136.768C79.1716 137.575 77.4749 138.729 76.1821 140.23C74.4739 142.214 73.5505 144.719 73.4119 147.742L72.6501 147.708C72.7656 144.938 73.5505 142.549 75.0048 140.541C76.4361 138.533 78.4214 137.033 80.9607 136.041Z" fill="#0D131A"/>
<path d="M88.7518 147.015C90.3215 146.946 91.9028 147.188 93.4957 147.742C96.6352 148.85 98.9206 150.581 100.352 152.935C101.76 155.197 101.956 157.367 100.941 159.444C97.0623 167.383 92.4684 174.596 87.1589 181.082C82.4958 186.736 79.5409 189.414 78.2943 189.113C77.1401 188.836 77.0362 183.02 77.9827 171.665C78.8599 160.979 79.6679 154.562 80.4066 152.416C80.7067 151.562 81.2261 150.731 81.9648 149.923C82.7035 149.139 83.523 148.515 84.4233 148.054C85.7392 147.408 87.182 147.061 88.7518 147.015ZM88.821 148.227C87.3898 148.273 86.097 148.573 84.9428 149.127C83.4192 149.889 82.4034 150.985 81.8956 152.416C81.2723 154.285 80.4758 160.563 79.5063 171.249C78.5598 182.051 78.352 187.532 78.883 187.694C79.9449 187.902 83.5577 183.597 89.7213 174.781C95.7003 166.218 99.0707 160.806 99.8325 158.544C100.017 158.059 100.11 157.494 100.11 156.847C100.11 155.232 99.4631 153.685 98.1704 152.208C96.8776 150.685 95.1924 149.577 93.1148 148.885C91.7066 148.4 90.2754 148.181 88.821 148.227Z" fill="#0D131A"/>
<path d="M113.337 75.0742C113.568 75.6512 113.753 76.4359 113.891 77.4283L114.203 79.7825C113.695 79.2747 113.014 78.8247 112.16 78.4323L111.086 75.5588C109.009 70.8735 105.708 67.6769 101.183 65.969C99.7518 65.4151 98.2743 65.0573 96.7507 64.8958L94.6731 64.7919L95.1925 63.511H97.3394C99.0708 63.6264 100.744 63.961 102.36 64.515C107.508 66.2229 111.167 69.7426 113.337 75.0742Z" fill="#0D131A"/>
<path d="M112.61 88.2991L113.684 89.3377C113.245 90.6071 112.737 91.715 112.16 92.6613L111.225 91.865C111.825 90.8033 112.287 89.6147 112.61 88.2991Z" fill="#0D131A"/>
<path d="M97.5818 99.066C102.499 98.9968 106.366 97.5197 109.182 94.6346L109.875 95.7425C107.035 98.7198 103.226 100.243 98.4475 100.312C94.6616 100.335 91.2912 99.3892 88.3363 97.4735C86.0048 95.9733 84.2619 94.15 83.1076 92.0035C81.6764 89.3723 80.7876 86.9605 80.4413 84.7678C80.0489 82.4367 80.3143 80.5903 81.2377 79.2286L83.0037 77.8784C82.2188 79.0555 81.8841 80.8096 81.9995 83.1407C82.115 85.7488 82.8075 88.2299 84.0772 90.5841C85.2776 92.8228 86.7781 94.6462 88.5787 96.0541C91.1642 98.0851 94.1653 99.0891 97.5818 99.066Z" fill="#0D131A"/>
<path d="M115.692 103.394C119.801 108.61 123.864 112.372 127.881 114.68L136.122 119.492C140.323 121.962 142.62 123.196 143.013 123.196L143.671 122.954C144.34 122.631 144.883 122.481 145.298 122.504C146.037 122.527 146.672 122.989 147.203 123.889C148.149 125.481 148.865 127.005 149.35 128.459C150.111 130.721 150.181 132.532 149.557 133.894C149.003 135.071 148.853 136.687 149.107 138.741C149.292 140.218 149.731 142.099 150.423 144.384C150.769 145.584 150.908 147.165 150.839 149.127L150.285 154.666C149.915 157.69 149.754 159.698 149.8 160.69C149.915 162.767 151.508 167.13 154.578 173.777L156.483 178.139C157.406 180.355 157.799 182.397 157.66 184.267C157.499 186.136 156.806 187.983 155.583 189.806L155.167 190.464C153.251 193.279 152.397 195.01 152.605 195.657L153.02 196.038L156.171 196.349C158.895 196.303 161.25 196.545 163.235 197.076C165.359 197.653 167.564 198.715 169.849 200.261L175.251 204.485L178.644 207.185C179.752 207.97 180.676 208.409 181.415 208.501C183.469 208.778 185.847 210.567 188.548 213.867C188.478 211.328 188.259 209.078 187.89 207.116C187.451 204.716 186.839 203.273 186.055 202.788C185.824 202.627 184.808 202.177 183.007 201.438C177.606 199.338 173.45 197.226 170.542 195.103C165.347 191.318 162.45 186.805 161.85 181.566L161.746 180.078C161.746 179.108 161.966 177.989 162.404 176.719L163.131 174.192C163.362 172.969 163.478 171.515 163.478 169.83L163.304 166.022C162.843 159.398 161.954 152.831 160.638 146.323C158.999 138.36 157.129 132.925 155.029 130.017C153.112 127.409 151.52 125.435 150.25 124.097L147.688 121.015C146.718 119.677 146.233 118.5 146.233 117.484L146.268 116.722C146.268 116.492 146.187 116.295 146.025 116.134L144.917 115.268C144.317 114.899 142.39 113.953 139.135 112.429C134.61 110.306 131.228 108.644 128.989 107.444C124.81 105.228 121.636 103.209 119.466 101.386C115.519 98.0851 111.918 94.2769 108.663 89.9609C108.478 89.7301 108.27 89.6609 108.039 89.7532C107.693 89.9378 107.612 90.2263 107.797 90.6187C109.574 94.6808 112.206 98.9391 115.692 103.394ZM128.989 106.232C131.436 107.594 134.575 109.164 138.407 110.941L142.597 112.741C144.19 113.41 145.183 113.872 145.575 114.126C146.429 114.657 146.983 115.176 147.237 115.684C147.422 116.007 147.491 116.469 147.445 117.069C147.422 117.553 147.457 117.957 147.549 118.28C147.711 118.834 148.08 119.504 148.657 120.288L151.116 123.266L153.089 125.17C154.197 126.301 155.352 127.697 156.552 129.359C158.861 132.498 160.834 138.279 162.473 146.704C163.697 152.981 164.551 159.386 165.036 165.918C165.244 168.895 165.14 171.399 164.724 173.43L163.547 177.1L163.027 178.935C162.912 179.627 162.912 180.458 163.027 181.428C163.605 186.344 166.409 190.51 171.442 193.926C173.797 195.518 177.813 197.422 183.492 199.638C184.716 200.1 185.893 200.677 187.024 201.369C187.809 201.877 188.49 203.308 189.067 205.662C189.667 208.108 189.933 210.717 189.864 213.486C189.84 214.894 189.679 215.644 189.379 215.736C189.102 215.829 188.455 215.367 187.44 214.352C186.447 213.359 185.316 212.448 184.046 211.617C182.615 210.67 181.449 210.14 180.549 210.024C179.718 209.932 178.783 209.401 177.744 208.432L174.489 205.385L169.26 201.3C167.044 199.823 164.932 198.796 162.924 198.219L158.006 197.665L153.886 197.699C153.078 197.722 152.385 197.595 151.808 197.318C151.3 197.088 151 196.834 150.908 196.557C150.723 195.911 151 194.918 151.739 193.579L154.163 189.771L154.613 189.148C155.721 187.486 156.333 185.813 156.448 184.128C156.564 182.466 156.206 180.62 155.375 178.589L153.47 174.261L150.181 167.199C149.026 164.498 148.415 162.479 148.345 161.14C148.322 160.448 148.403 159.421 148.588 158.059L149.107 154.528C149.638 150.166 149.557 146.819 148.865 144.488C147.41 139.687 147.272 135.994 148.449 133.409C148.911 132.44 148.876 131.055 148.345 129.255C147.907 127.755 147.191 126.174 146.199 124.512C145.875 124.004 145.564 123.739 145.264 123.716C145.056 123.693 144.698 123.796 144.19 124.027L143.255 124.373C142.216 124.581 139.642 123.462 135.533 121.015L126.565 115.372C122.294 112.949 118.15 109.06 114.134 103.705C111.04 99.5507 108.559 95.3386 106.689 91.0687C106.481 90.6071 106.469 90.1455 106.654 89.6839C106.816 89.2685 107.081 88.9569 107.451 88.7492C107.797 88.5415 108.155 88.4722 108.524 88.5415C108.94 88.5876 109.297 88.8184 109.597 89.2339C112.783 93.4345 116.327 97.1735 120.228 100.451C122.398 102.274 125.318 104.201 128.989 106.232Z" fill="#0D131A"/>
<path d="M140.485 78.0861L141.662 78.2592C141.408 79.2286 141.131 81.2481 140.831 84.3178C140.554 87.2259 140.404 89.4762 140.381 91.0687C140.358 92.2458 139.608 93.6768 138.13 95.3617L135.741 97.612C135.649 97.7043 135.487 98.0505 135.256 98.6506C135.002 99.5507 134.656 100.047 134.217 100.139C133.687 100.255 133.017 99.8854 132.209 99.0314C130.155 96.8157 126.599 94.9116 121.544 93.3191L118.185 92.3843L115.069 91.7611C114.122 91.4842 113.337 90.8956 112.714 89.9955C107.658 82.7252 103.965 78.2708 101.633 76.6321C101.102 76.2628 100.768 75.8473 100.629 75.3857C100.514 74.9703 100.571 74.5895 100.802 74.2433C101.31 73.5278 102.499 73.3431 104.369 73.6893C106.469 74.0817 108.651 75.028 110.913 76.5282C112.737 77.7515 116.015 80.3018 120.747 84.1793L129.889 91.6573C129.889 89.557 130.293 87.976 131.101 86.9143C131.701 86.1757 132.867 83.7639 134.598 79.6787L136.295 75.8704L137.299 76.5282C136.976 77.1975 136.445 78.4092 135.706 80.1633L133.94 84.5255C133.317 86.095 132.821 87.1105 132.452 87.5721C131.897 88.2645 131.551 89.0954 131.413 90.0648L131.136 92.869C131.02 93.746 130.824 94.1038 130.547 93.9422L130.166 93.4229C119.57 84.9986 112.518 79.621 109.009 77.2899C107 75.9512 105.269 75.1203 103.815 74.7972C102.684 74.5433 102.014 74.5895 101.806 74.9357C101.76 74.9818 101.783 75.0742 101.876 75.2126L102.326 75.6627C103.942 76.7936 106.054 78.9401 108.663 82.1021C110.509 84.3409 112.16 86.5104 113.614 88.6107C114.168 89.4185 114.838 90.0071 115.623 90.3763C116.13 90.6302 117.077 90.9187 118.462 91.2418L121.89 92.1766C127.223 93.8615 130.951 95.8694 133.075 98.2005L133.906 98.9276L134.114 98.3044C134.344 97.4735 134.633 96.9311 134.979 96.6772C135.972 95.8925 136.872 95.0039 137.68 94.0115C138.673 92.7882 139.169 91.7958 139.169 91.0341C139.192 89.5339 139.331 87.3874 139.585 84.5947C139.885 81.4558 140.185 79.2863 140.485 78.0861Z" fill="#0D131A"/>
<path d="M165.451 1.09054C164.759 0.675096 158.711 9.79178 147.307 28.4406C135.81 47.2048 129.785 58.041 129.231 60.9491C129.07 61.7569 128.989 62.6224 128.989 63.5456C128.989 66.3152 129.739 68.8079 131.24 71.0236C132.856 73.4008 135.164 75.1203 138.165 76.182C141.882 77.4745 145.829 77.4976 150.008 76.2512C154.117 75.0049 156.598 73.0893 157.452 70.5043C159.022 65.7959 160.984 53.0903 163.339 32.3873C165.648 11.7998 166.352 1.3675 165.451 1.09054ZM165.936 0.0173102C167.021 0.340433 166.86 8.98397 165.451 25.9479C163.974 43.8351 161.954 58.5141 159.392 69.985C158.745 72.9623 156.056 75.305 151.323 77.0129C146.868 78.6054 142.863 78.9632 139.308 78.0861C134.783 76.9552 131.505 74.5779 129.474 70.9543C127.65 67.7231 127.142 64.2149 127.95 60.4298C128.989 55.7445 135.187 44.3775 146.545 26.3288C157.879 8.32619 164.343 -0.444294 165.936 0.0173102Z" fill="#0D131A"/>
<path d="M127.846 61.7453L128.608 61.6068C128.908 63.1763 129.843 64.8958 131.413 66.7653C133.236 68.9579 135.453 70.6774 138.061 71.9237C140.6 73.147 143.29 73.7586 146.129 73.7586C149.869 73.7586 153.701 72.6969 157.626 70.5735L158.006 71.2659C153.897 73.4585 149.984 74.6126 146.268 74.728C143.336 74.8203 140.612 74.2663 138.096 73.0662C135.395 71.7737 133.017 69.8926 130.963 67.4231C129.208 65.2997 128.169 63.4071 127.846 61.7453Z" fill="#0D131A"/>
<path d="M61.327 44.539C64.859 42.9234 69.0605 42.1156 73.9314 42.1156L73.7236 43.5004C69.1759 43.5927 65.3323 44.3429 62.1927 45.7507C61.454 46.0739 60.8769 46.3624 60.4613 46.6163L59.6649 45.3699L61.327 44.539Z" fill="#0D131A"/>
<path d="M82.7959 43.5697V44.816C81.7802 44.3082 80.0604 43.9159 77.6365 43.6389L77.8442 42.3926C80.0604 42.6465 81.7109 43.0388 82.7959 43.5697Z" fill="#0D131A"/>
<path d="M86.6742 73.1354L89.0288 72.3392C86.2356 75.6396 83.6616 78.4208 81.3069 80.6827C77.0132 84.7678 73.839 86.7181 71.7844 86.5335C70.8149 86.4412 69.2105 85.5872 66.9712 83.9716C64.5473 82.2406 62.3081 80.2672 60.2535 78.0515V76.8744L60.0458 75.6627C62.1927 78.2246 64.5358 80.4749 67.0751 82.4137C69.2682 84.0754 70.7802 84.9409 71.6113 85.0102C73.0195 85.0794 75.4896 83.6369 79.0215 80.6827C82.0687 78.1207 84.6196 75.605 86.6742 73.1354Z" fill="#0D131A"/>
<path d="M57.4141 46.9278L58.2798 48.1049C55.9021 49.9975 54.2977 52.4094 53.4666 55.3406L53.2589 56.1715L52.0815 55.8945L52.2893 54.9944C53.282 51.6247 54.9902 48.9358 57.4141 46.9278Z" fill="#0D131A"/>
<path d="M52.0469 56.4484C50.5464 57.0947 49.7731 58.9757 49.7269 62.0915C49.6577 65.3689 50.4656 68.5655 52.1508 71.6814C53.1896 73.5739 54.4824 75.0972 56.0291 76.2512C57.4834 77.3129 58.6261 77.7168 59.4572 77.463C59.5957 77.463 59.6534 77.3245 59.6303 77.0475C59.4918 75.1088 58.3376 71.139 56.1676 65.1381C53.9745 59.1142 52.601 56.2176 52.0469 56.4484ZM51.3198 55.5137L53.0858 55.5829C53.9861 56.3676 55.5097 59.8643 57.6566 66.0729C59.2263 70.5735 60.1497 73.8278 60.4267 75.8358C60.6576 77.4976 60.4498 78.4208 59.8035 78.6054C58.6261 78.9516 57.1025 78.5362 55.2326 77.3591C53.2935 76.1358 51.793 74.5548 50.7311 72.6161C49.0228 69.5003 48.2726 66.1767 48.4803 62.6455C48.665 59.2527 49.6115 56.8754 51.3198 55.5137Z" fill="#0D131A"/>
<path d="M86.9512 50.8053L87.2629 51.9824C84.6774 52.6748 82.5997 55.0174 81.0299 59.0103C79.4833 62.9801 79.1139 66.9038 79.9219 70.7812C80.2681 72.4661 80.9491 73.4816 81.9649 73.8278C83.0037 74.1971 84.3542 74.0125 86.0163 73.2739C87.7015 72.5353 89.4675 71.3352 91.3143 69.6734C92.4223 68.704 93.2995 67.3192 93.9459 65.5189C94.5461 63.8572 94.8578 62.1146 94.8809 60.2913C94.927 56.8754 93.7382 54.0596 91.3143 51.8439L92.1107 50.9438C93.4958 52.1901 94.5577 53.598 95.2964 55.1675C96.0813 56.8292 96.4622 58.5603 96.4391 60.3605C96.3929 62.5993 96.0813 64.5034 95.5041 66.0729C94.8809 67.7577 93.8651 69.3156 92.457 70.7466C90.4947 72.7084 88.4517 74.0471 86.3279 74.7626L81.584 74.9703C80.1527 74.4625 79.2062 73.147 78.7445 71.0236C77.8673 66.7999 78.2828 62.5647 79.9911 58.3179C81.7225 54.0942 84.0425 51.59 86.9512 50.8053Z" fill="#0D131A"/>
<path d="M60.0458 50.9784C60.3459 51.5785 60.6691 52.0747 61.0154 52.4671L61.6387 52.9172C62.1696 52.7325 62.1465 51.8785 61.5694 50.3552C60.8769 48.555 58.6953 44.8852 55.0248 39.346C51.8622 34.5915 49.5191 31.2448 47.9955 29.3061C46.9105 27.9213 45.8602 27.1712 44.8444 27.0558C43.8056 26.9404 42.5475 27.4481 41.07 28.5791C39.431 29.8023 35.8067 33.4836 30.1971 39.6229C24.5644 45.7392 21.3902 49.4782 20.6746 50.8399C20.3052 51.5323 20.236 52.4555 20.4668 53.6096C20.6976 54.7636 21.1478 55.7676 21.8173 56.6215C22.6022 57.5909 23.387 57.9602 24.1719 57.7294C24.9799 57.5217 25.7417 57.0023 26.4573 56.1715L28.535 53.2287C29.5738 51.567 30.3933 50.3437 30.9935 49.559C33.5328 46.1662 36.2569 42.8542 39.1655 39.6229C41.6818 36.8072 43.5978 34.9723 44.9137 34.1183C45.8602 33.4952 46.5989 33.3567 47.1298 33.7029C48.1456 34.3722 50.3502 37.0149 53.7436 41.6309C57.0217 46.0392 59.1224 49.1551 60.0458 50.9784ZM62.6775 49.9398C63.0699 51.0015 63.2084 51.867 63.093 52.5363C62.9776 53.1364 62.6659 53.5288 62.1581 53.7134C61.2116 54.0596 60.3113 53.3441 59.4571 51.567C58.6261 49.859 56.4561 46.7547 52.9472 42.2541C49.5076 37.8227 47.3491 35.3069 46.4719 34.7069C45.7794 34.6145 43.8749 36.2648 40.7584 39.6576C37.8035 42.8657 34.8718 46.4085 31.9631 50.286L29.5392 53.8519L27.2538 57.1408C26.3765 58.1564 25.4416 58.8026 24.4489 59.0796C23.11 59.4719 21.9096 58.9988 20.8477 57.6601C20.0397 56.6677 19.4626 55.4791 19.1163 54.0942C18.747 52.5479 18.8162 51.3015 19.3241 50.3552C20.0859 48.9474 23.3178 45.093 29.0197 38.7921C34.7448 32.445 38.4384 28.6483 40.1005 27.402C41.878 26.0633 43.4132 25.4286 44.7059 25.4979C46.0448 25.5902 47.3491 26.4441 48.6188 28.0598C50.2347 30.1139 52.6702 33.5875 55.9252 38.4805C59.7342 44.2275 61.9849 48.0472 62.6775 49.9398Z" fill="#0D131A"/>
<path d="M80.0603 21.4473C79.6217 20.6395 79.1947 20.0278 78.7791 19.6124C78.4329 19.2662 78.1674 19.1162 77.9827 19.1623C77.8673 19.1623 77.7403 19.2777 77.6018 19.5085C77.3479 19.924 77.1401 20.5818 76.9785 21.4819C76.8169 22.4051 76.2052 27.7366 75.1433 37.4765C74.3122 45.6007 73.8043 50.136 73.6197 51.0823C73.5504 51.3823 73.5619 51.6362 73.6543 51.8439L73.9659 52.1555C74.266 52.2248 74.52 51.9478 74.7277 51.3246L77.1516 42.2195L78.7445 35.7109C78.9292 35.0184 79.0908 34.6607 79.2293 34.6376C79.3909 34.6376 79.6102 34.9723 79.8872 35.6416C80.8337 37.9496 82.3457 41.1232 84.4234 45.1622C86.9165 50.0552 88.4748 52.5594 89.0981 52.6748C89.7675 52.7902 90.4832 52.3978 91.245 51.4977C91.9375 50.6668 92.4915 49.6282 92.9071 48.3819C93.1148 47.7356 93.2187 47.0663 93.2187 46.3739C93.2187 45.2199 92.8955 44.1351 92.2492 43.1196C90.7256 40.6731 88.2555 36.3571 84.8389 30.1716L80.0603 21.4473ZM77.7749 17.9853C78.9984 17.8006 80.0834 18.5738 81.0299 20.3048C86.6857 30.8063 90.841 38.192 93.4957 42.4618C94.6731 44.3313 94.8924 46.4201 94.1537 48.7281C93.692 50.1591 92.9763 51.4746 92.0068 52.6748C91.0603 53.875 90.2639 54.4751 89.6175 54.4751C88.8326 54.4751 88.0939 54.0712 87.4013 53.2634C86.3625 51.9939 84.8735 49.3628 82.9344 45.3699C81.6186 42.6465 80.4643 40.1076 79.4717 37.7535C78.5483 41.6078 77.3132 46.0162 75.7666 50.9784C75.5357 51.6939 75.2356 52.2247 74.8662 52.5709C74.4969 52.9172 74.116 53.0326 73.7235 52.9172C73.3311 52.8248 73.0425 52.5479 72.8579 52.0863C72.6963 51.6247 72.6616 51.0592 72.754 50.3899L74.243 35.9532L75.8012 21.2742C76.1475 19.22 76.8054 18.1237 77.7749 17.9853Z" fill="#0D131A"/>
<path d="M55.5096 64.3419C55.8558 65.4728 55.9597 66.4999 55.8212 67.4231C55.6596 68.3463 55.3018 68.8887 54.7478 69.0502C54.1706 69.2118 53.5704 68.9579 52.9471 68.2886C52.3238 67.5962 51.8391 66.673 51.4928 65.5189C51.1696 64.3649 51.0773 63.3379 51.2158 62.4377C51.3774 61.5145 51.7352 60.9721 52.2892 60.8106C52.8433 60.649 53.4319 60.9144 54.0552 61.6068C54.7016 62.2993 55.1864 63.2109 55.5096 64.3419Z" fill="white"/>
<path d="M82.1726 59.9797C82.7728 58.6641 83.6154 57.6832 84.7004 57.037C85.7623 56.4138 86.7319 56.2984 87.6091 56.6908C88.5094 57.1062 89.0634 57.9256 89.2712 59.1488C89.4559 60.3721 89.2481 61.6415 88.6479 62.957C88.0477 64.2726 87.2166 65.2535 86.1547 65.8998C85.0928 66.5229 84.1117 66.6268 83.2114 66.2114C82.3111 65.819 81.7571 65.0112 81.5493 63.7879C81.3646 62.5647 81.5724 61.2953 82.1726 59.9797Z" fill="white"/>
</svg>
