<svg width="216" height="215" viewBox="0 0 216 215" fill="none" xmlns="http://www.w3.org/2000/svg">
<path d="M144.686 46.2122L29.8876 135.04C28.7046 135.171 26.9465 134.876 24.6134 134.153C21.6888 133.234 18.9121 131.871 16.2832 130.064C8.79098 124.94 4.2562 117.583 2.67889 107.993C1.13443 98.7962 2.54744 88.9264 6.91792 78.3834C8.36379 74.9018 10.1383 71.3054 12.2414 67.5939L16.0861 61.14C19.2078 55.5893 21.7874 50.1043 23.8248 44.6849C27.2094 35.6198 28.1295 28.9196 26.5851 24.5841L28.1624 24.7812C29.3454 25.0111 30.2983 25.4381 31.0212 26.0621C30.9227 25.0111 30.6433 23.7794 30.1833 22.3671C29.2303 19.4768 27.8666 17.0463 26.0921 15.0756L31.4156 14.3366C35.9175 14.3695 40.4851 15.6504 45.1185 18.1794L44.7735 15.4697C44.642 13.6305 44.8227 12.6123 45.3157 12.4152C46.0714 12.1196 47.1559 12.8422 48.5689 14.5829C48.6017 13.1378 48.9139 11.4956 49.5054 9.65627C50.6555 6.04338 52.5943 3.31729 55.3217 1.478L58.0327 6.45394C60.563 10.034 63.6519 12.5137 67.2995 13.8932C70.487 15.1413 77.7163 16.0938 88.9875 16.7507C99.8973 17.4076 107.587 18.7542 112.056 20.7906L116.788 21.1847C120.632 21.6774 124.181 22.5806 127.435 23.8944C137.917 28.1313 143.668 35.5706 144.686 46.2122Z" fill="#68AE28"/>
<path d="M6.07993 117.649C-1.34659 103.657 0.427883 87.5798 11.4034 69.4168C5.8499 84.0983 7.72296 95.8402 17.0225 104.643C21.0644 108.452 26.1578 111.244 32.3028 113.018C38.3163 114.726 44.6913 115.284 51.4277 114.693L28.4581 135.434C25.1063 135.139 21.3766 133.513 17.269 130.557C12.5699 127.108 8.84022 122.806 6.07993 117.649Z" fill="#56931F"/>
<path d="M189.738 39.709C192.663 40.9899 195.21 45.3418 197.379 52.7647C199.317 59.4978 199.975 64.2602 199.35 67.052C203.228 71.5517 207.007 80.3376 210.687 93.4097C214.86 108.058 215.567 118.716 212.807 125.384C211.919 127.519 209.323 130.425 205.019 134.104C200.55 137.98 196.13 140.969 191.759 143.071L193.977 146.667C195.752 149.82 197.346 153.22 198.759 156.865C203.261 168.624 205.134 180.809 204.378 193.421C204.148 197.428 200.829 200.713 194.421 203.275C188.145 205.738 181.458 206.559 174.36 205.738C171.961 205.409 168.79 202.601 164.846 197.313C160.344 191.171 157.666 184.799 156.812 178.198C150.798 181.679 145.721 184.028 141.581 185.243L140.299 187.411C139.182 189.184 137.868 190.826 136.356 192.337C131.591 197.198 125.956 199.908 119.449 200.466C112.976 201.025 107.948 200.516 104.366 198.939C103.249 198.446 102.329 197.872 101.606 197.215L100.916 196.377L61.5323 197.707L57.4905 201.255C53.8758 203.652 49.7025 204.917 44.9705 205.048C38.497 205.245 33.4036 204.654 29.6903 203.275C25.0241 201.501 21.7052 198.266 19.7335 193.569C16.8746 186.803 15.363 179.052 15.1987 170.315C14.9687 158.951 17.5154 149.656 22.8389 142.43C27.9651 135.467 34.6523 128.373 42.9003 121.147C45.2006 119.143 51.4605 114.052 61.6802 105.874C66.9051 101.736 71.5549 97.7288 75.6296 93.8531C79.77 89.9118 82.2839 87.0872 83.1711 85.3792C84.1241 78.8432 85.3728 72.2086 86.9172 65.4755C90.039 52.0092 93.0622 44.8163 95.9868 43.8967C98.9114 43.0099 103.216 43.9459 108.901 46.7049C111.727 48.1172 114.257 49.5952 116.492 51.1389L119.844 49.9565C122.801 49.0697 126.038 48.3142 129.554 47.6902C140.792 45.7524 152.721 45.6374 165.339 47.3453C167.245 45.309 171.451 43.3383 177.958 41.4333C184.234 39.594 188.161 39.0192 189.738 39.709Z" fill="#7CBEB3"/>
<path d="M198.66 59.3171L199.646 67.052L194.569 59.5142C195.095 57.3136 195.325 54.3412 195.259 50.5969L194.963 45.6703C196.475 48.9219 197.707 53.4708 198.66 59.3171Z" fill="#68A198"/>
<path d="M85.7836 68.0373C88.4453 55.8192 91.0578 48.7576 93.6209 46.8527C92.9965 53.9471 92.7829 60.9594 92.9801 67.8896C93.1116 71.9623 93.5387 78.1699 94.2617 86.5124C94.6889 91.4719 94.1795 95.8731 92.7337 99.7159C91.4521 103.066 89.7762 105.349 87.706 106.564C85.6686 107.746 83.9927 107.484 82.6783 105.776C81.2653 103.904 80.7888 100.685 81.2488 96.1194C82.1689 87.0215 83.6805 77.6608 85.7836 68.0373Z" fill="#68A198"/>
<path d="M174.754 193.273C177.284 198.003 180.307 200.959 183.823 202.141L181.95 205.886C176.988 206.871 172.602 205.574 168.79 201.994C164.222 197.625 160.18 189.693 156.664 178.198C150.979 181.646 144.67 184.225 137.736 185.933C130.901 187.641 122.686 188.675 113.091 189.036C111.579 189.529 110.478 190.58 109.788 192.19C109.098 193.733 109.082 195.129 109.739 196.377L106.979 199.629L101.064 196.032C101.228 194.916 102.148 191.582 103.824 186.031C105.467 180.71 106.502 176.096 106.929 172.187C108.178 160.495 104.925 149.919 97.1698 140.459C104.071 147.39 116.163 151.742 133.448 153.515C151.916 155.387 167.607 153.712 180.521 148.49C176.381 151.15 173.423 155.289 171.649 160.905C170.071 165.963 169.595 171.563 170.219 177.705C170.844 183.617 172.355 188.807 174.754 193.273Z" fill="#68A198"/>
<path d="M14.7059 164.994C16.1189 176.523 22.4281 183.929 33.6336 187.214C37.9384 188.462 42.4732 188.921 47.238 188.593C51.5756 188.297 55.141 187.443 57.9341 186.031L61.5324 198.151C58.9692 200.647 55.5189 202.601 51.1813 204.014C42.506 206.838 33.7815 205.606 25.0077 200.318C20.7687 197.757 17.7291 191.253 15.8889 180.809C15.2974 177.295 14.903 173.731 14.7059 170.118C14.5416 167.096 14.5416 165.388 14.7059 164.994Z" fill="#68A198"/>
<path d="M120.238 84.6895C121.52 84.4596 122.883 84.6731 124.329 85.33C119.367 89.1399 116.771 94.9863 116.541 102.869C116.311 110.062 117.954 116.811 121.47 123.118C114.57 122.362 109.706 120.786 106.88 118.388C106.059 117.665 105.714 115.645 105.845 112.328C105.977 108.879 106.584 105.267 107.669 101.489C110.495 91.4391 114.685 85.8391 120.238 84.6895Z" fill="white"/>
<path d="M137.293 103.46C138.837 107.599 139.79 111.326 140.152 114.644C140.546 118.191 140.152 120.556 138.969 121.738C138.18 122.526 136.06 123.068 132.61 123.364C129.094 123.627 125.381 123.545 121.47 123.118C117.954 116.811 116.311 110.062 116.541 102.869C116.771 94.9862 119.367 89.1399 124.329 85.33C129.225 87.5962 133.547 93.6396 137.293 103.46Z" fill="#D60040"/>
<path d="M195.013 82.2262C199.12 85.5763 201.568 90.5851 202.357 97.2525C202.85 101.424 202.653 107.287 201.765 114.841C200.32 115.399 198.923 115.777 197.576 115.974C196.196 116.204 195.16 116.204 194.47 115.974C192.532 115.35 191.562 110.39 191.562 101.095C191.529 91.6033 192.679 85.3135 195.013 82.2262Z" fill="#D60040"/>
<path d="M195.013 82.2261C195.604 81.405 196.228 80.9288 196.886 80.7974C200.073 80.1077 203.162 83.9998 206.152 92.4736C209.077 100.882 209.652 106.892 207.878 110.505C207.056 112.213 205.019 113.658 201.765 114.841C202.653 107.286 202.85 101.424 202.357 97.2525C201.568 90.5851 199.12 85.5763 195.013 82.2261Z" fill="white"/>
<path d="M166.079 77.201C165.126 77.5623 162.645 76.5605 158.636 74.1957C154.43 71.7652 152.409 69.7781 152.573 68.2344C152.803 66.1981 156.204 63.3899 162.776 59.8098C169.447 56.1969 173.883 54.8667 176.085 55.8192C177.498 56.4104 176.758 59.8919 173.867 66.2637C170.942 72.6684 168.346 76.3142 166.079 77.201Z" fill="#006359"/>
<path d="M144.144 81.4379C144.046 81.0109 144.538 80.2062 145.623 79.0238C146.74 77.8086 147.742 77.086 148.63 76.8561L149.714 78.3833C150.634 79.927 151.554 82.0948 152.474 84.8866L151.834 86.4138C151.209 87.5305 150.437 88.3024 149.517 88.7294L147.151 86.4631C145.508 84.6566 144.506 82.9816 144.144 81.4379Z" fill="#006359"/>
<path d="M182.246 92.1781C183.265 97.9915 183.347 101.243 182.493 101.933C181.737 102.557 179.437 102.311 175.592 101.194C171.714 100.077 169.513 98.9933 168.987 97.9423C169.151 95.5118 170.4 92.4737 172.733 88.8279C175.132 85.1822 177.071 83.3593 178.549 83.3593C179.995 83.3593 181.228 86.2989 182.246 92.1781Z" fill="#006359"/>
<path d="M185.204 177.853C185.072 175.981 186.222 173.304 188.654 169.822C191.02 166.407 192.729 164.764 193.78 164.896C195.358 165.06 196.442 168.361 197.033 174.798C197.592 181.269 197.083 184.767 195.505 185.292C193.764 185.883 191.677 185.555 189.245 184.307C186.452 182.829 185.105 180.678 185.204 177.853Z" fill="#006359"/>
<path d="M28.9509 150.165L37.084 150.51C40.7315 151.232 42.8346 152.037 43.3932 152.924C44.3133 154.402 43.7054 157.522 41.5695 162.285C39.4664 167.014 37.6919 169.445 36.246 169.576C34.9973 169.675 32.467 168.427 28.6552 165.832C24.8105 163.237 22.9046 161.431 22.9374 160.412C22.9703 159.099 23.6111 157.227 24.8598 154.796C26.2399 152.07 27.6037 150.526 28.9509 150.165Z" fill="#006359"/>
<path d="M75.8268 107.943C76.6811 109.421 75.301 113.527 71.6863 120.26C68.0716 126.993 65.2949 130.573 63.3561 131C61.5816 131.427 58.6899 130.655 54.6809 128.685C50.9019 126.878 48.3881 125.22 47.1394 123.709C46.745 123.216 47.0079 121.771 47.928 119.373L49.4067 115.875L56.0118 110.653C60.4808 107.139 62.9782 105.316 63.504 105.184L69.6654 105.726C73.2801 106.35 75.3338 107.089 75.8268 107.943Z" fill="#006359"/>
<path d="M125.857 90.3059C126.909 90.3059 127.829 91.3405 128.617 93.4097C129.406 95.6103 129.784 98.3528 129.751 101.637C129.685 104.757 129.258 107.221 128.47 109.027C127.747 110.669 126.859 111.491 125.808 111.491C124.822 111.491 123.968 110.604 123.245 108.83C122.456 106.958 122.029 104.593 121.963 101.736C121.832 98.2871 122.193 95.4789 123.048 93.3112C123.803 91.3077 124.74 90.3059 125.857 90.3059Z" fill="white"/>
<path d="M192.696 91.3898L193.682 86.9558C194.076 86.4303 194.454 86.1839 194.815 86.2168C195.407 86.2496 195.966 86.8901 196.491 88.1382C197.247 89.8132 197.658 92.178 197.724 95.2326C197.756 98.1229 197.494 100.373 196.935 101.982C196.409 103.427 195.752 104.15 194.963 104.15C194.47 104.15 193.977 103.789 193.485 103.066C192.959 102.278 192.597 101.243 192.4 99.9622C192.006 97.6959 192.104 94.8384 192.696 91.3898Z" fill="white"/>
<path d="M171.698 49.6116C162.694 47.8708 153.575 47.1975 144.341 47.5917C134.417 47.9858 125.299 49.5952 116.985 52.4198C116.689 52.5183 116.278 52.1899 115.753 51.4345C115.194 50.679 115.063 50.2356 115.358 50.1043C124.789 46.9183 135.009 45.2104 146.017 44.9805C155.678 44.7506 164.501 45.6538 172.487 47.6902C176.561 48.7412 178.5 49.5131 178.303 50.0057L171.698 49.6116Z" fill="#0D131A"/>
<path d="M198.315 63.357C204.986 73.0133 209.849 84.2133 212.905 96.9569C215.567 108.058 216.224 116.647 214.877 122.723C213.398 129.457 206.037 136.354 192.794 143.415C179.65 150.444 166.95 154.336 154.692 155.092C141.581 155.88 129.242 154.796 117.675 151.84C106.108 148.884 98.6485 144.893 95.2967 139.868C94.2123 138.226 93.8673 137.224 94.2616 136.863C94.6888 136.502 95.6582 137.142 97.1698 138.784C101.606 143.645 109.509 147.357 120.879 149.919C131.69 152.349 142.978 153.203 154.742 152.481C167.032 151.725 179.437 147.866 191.957 140.903C203.984 134.203 210.654 127.864 211.969 121.886C213.349 115.678 212.774 107.303 210.243 96.7598C207.417 84.9687 202.899 74.3599 196.688 64.9335C194.125 61.0251 193.123 58.8573 193.682 58.4303C194.207 58.0034 195.752 59.6456 198.315 63.357Z" fill="#0D131A"/>
<path d="M84.1076 85.9212C81.9388 89.9939 77.5519 94.8385 70.9469 100.455C67.0037 103.772 60.3658 109.027 51.0333 116.22C42.5224 122.986 35.9503 128.947 31.3169 134.104C24.9419 141.198 20.7029 148.178 18.5998 155.042C16.0696 163.286 15.9381 172.549 18.2055 182.829C20.3086 192.518 23.2989 198.496 27.1765 200.762C31.3498 203.192 36.969 204.26 44.034 203.964C51.3291 203.669 56.3732 201.961 59.1664 198.841C63.4711 194.012 65.147 186.195 64.1941 175.39C63.2082 164.354 59.8564 155.551 54.1387 148.983C51.9042 146.388 50.9512 144.811 51.2798 144.253C51.6084 143.695 53.005 144.729 55.4695 147.357C62.666 155.075 66.675 164.518 67.4966 175.685C68.2524 186.294 66.0343 194.505 60.8423 200.319C57.7205 203.833 52.1013 205.804 43.9847 206.231C36.131 206.658 29.9039 205.524 25.3034 202.831C20.6372 200.105 17.2197 193.668 15.0509 183.519C12.8492 173.074 13.0628 163.418 15.6917 154.55C17.6962 147.849 21.6559 141.133 27.5708 134.4C31.8756 129.473 38.1027 123.709 46.2521 117.107L66.4615 100.75C73.7565 94.4772 79.195 88.713 82.7768 83.4578C82.9411 83.2279 83.2368 83.5071 83.664 84.2954C84.1241 85.1165 84.2719 85.6584 84.1076 85.9212Z" fill="#0D131A"/>
<path d="M96.1839 42.4186C98.2213 41.7617 101.655 42.4186 106.486 44.3893C111.349 46.3928 115.342 48.8397 118.464 51.73C120.928 54.0292 121.881 55.3265 121.322 55.6221C120.797 55.9506 119.285 55.1459 116.788 53.208C113.567 50.7776 109.838 48.7248 105.599 47.0497C101.458 45.3746 98.6814 44.7834 97.2684 45.2761C94.9681 46.0315 92.3064 51.8614 89.2832 62.7658C86.0957 74.2942 84.0255 86.381 83.0725 99.0261C82.8096 102.672 82.3496 104.347 81.6924 104.051C81.0023 103.756 80.723 102.031 80.8544 98.8783C81.2816 87.9411 82.9246 76.4948 85.7835 64.5394C89.0367 51.0075 92.5035 43.6339 96.1839 42.4186Z" fill="#0D131A"/>
<path d="M163.762 46.6556C166.621 44.4879 171.008 42.4187 176.923 40.448C183.593 38.2146 188.227 37.689 190.823 38.8714C193.386 40.021 195.719 43.8802 197.822 50.4491C199.761 56.5582 200.845 62.7001 201.075 68.8749C201.075 69.1705 200.665 68.8585 199.843 67.9388C198.989 67.0192 198.562 66.3951 198.562 66.0667C198.364 61.0743 197.214 55.8192 195.111 50.3013C193.107 45.0462 191.25 42.0245 189.541 41.2363C187.931 40.5137 184.251 40.9735 178.5 42.6157C172.684 44.2579 168.543 46.0151 166.079 47.8873C165.849 48.0843 165.339 47.9858 164.551 47.5917C163.795 47.1647 163.532 46.8527 163.762 46.6556Z" fill="#0D131A"/>
<path d="M165.586 75.8215C167.196 75.7886 169.447 72.7177 172.339 66.6086C175.198 60.5981 176.265 57.4122 175.543 57.0509C173.932 56.2298 169.94 57.4286 163.565 60.6473C157.157 63.8661 153.937 66.3459 153.904 68.0866C153.871 69.1705 155.284 70.6978 158.143 72.6684C161.067 74.6391 163.548 75.6901 165.586 75.8215ZM161.642 59.3171C168.642 55.54 173.637 53.9306 176.627 54.489C177.646 54.6861 177.941 56.0327 177.514 58.5289C177.12 60.828 176.233 63.5212 174.852 66.6086C171.402 74.2942 168.313 78.0713 165.586 77.94C163.417 77.8086 160.525 76.5605 156.911 74.1957C153.132 71.7323 151.242 69.6467 151.242 67.9388C151.242 65.9353 154.709 63.0614 161.642 59.3171Z" fill="#0D131A"/>
<path d="M151.489 85.1822C151.587 84.9194 151.226 83.7042 150.404 81.5364C149.583 79.3359 148.991 78.2191 148.63 78.1863C148.334 78.1535 147.677 78.5969 146.658 79.5165C145.639 80.4361 145.13 81.1259 145.13 81.5857C145.163 82.0127 145.853 83.1294 147.2 84.9358C148.548 86.6766 149.336 87.547 149.566 87.547C149.763 87.547 150.108 87.2185 150.601 86.5616L151.489 85.1822ZM151.587 80.0092C152.606 82.4397 153.132 84.0983 153.165 84.9851C153.197 85.7077 152.672 86.693 151.587 87.9411C150.47 89.222 149.632 89.7311 149.073 89.4684C148.416 89.1728 147.282 87.9575 145.672 85.8226C143.931 83.5564 143.126 81.9963 143.257 81.1423C143.388 80.2555 144.161 79.1388 145.574 77.7922C146.987 76.5112 148.055 75.8872 148.778 75.92C149.533 75.9857 150.47 77.3488 151.587 80.0092Z" fill="#0D131A"/>
<path d="M178.204 84.788C177.186 84.7223 175.51 86.6437 173.177 90.5522C170.909 94.4279 169.907 96.7434 170.17 97.4988C170.433 98.1886 172.289 99.0261 175.74 100.011C179.223 100.997 181.211 101.26 181.704 100.8C182.46 100.077 182.312 97.2361 181.26 92.2766C180.209 87.3499 179.19 84.8537 178.204 84.788ZM171.501 88.9264C174.36 83.9998 176.611 81.6185 178.254 81.7828C180.324 81.9798 181.983 85.3957 183.232 92.0302C184.448 98.632 184.349 102.278 182.936 102.967C181.72 103.592 179.042 103.214 174.902 101.834C170.827 100.488 168.593 99.3381 168.198 98.3856C167.574 96.9733 168.675 93.8203 171.501 88.9264Z" fill="#0D131A"/>
<path d="M108.852 94.5921C112.696 86.808 116.82 83.1622 121.224 83.6549C127.434 84.3775 132.774 89.6162 137.243 99.371C139.116 103.509 140.349 107.599 140.94 111.638C141.565 115.842 141.351 119.193 140.299 121.689C139.741 123.068 137.638 123.988 133.99 124.448C130.638 124.842 126.744 124.809 122.308 124.349C117.839 123.889 114.027 123.085 110.873 121.935C107.389 120.72 105.5 119.324 105.204 117.747C103.725 110.259 104.941 102.54 108.852 94.5921ZM132.019 95.2818C128.568 89.4355 124.888 86.2989 120.977 85.8719C119.433 85.7077 117.757 86.5616 115.95 88.4338C113.222 91.2584 111.021 95.3311 109.345 100.652C107.57 106.433 107.044 111.967 107.767 117.255C108.03 119.291 112.943 120.835 122.505 121.886C132.068 122.97 137.26 122.559 138.081 120.654C138.936 118.585 138.788 114.972 137.638 109.816C136.422 104.429 134.549 99.5845 132.019 95.2818Z" fill="#0D131A"/>
<path d="M204.624 91.3405C202.16 85.2314 199.679 82.1769 197.181 82.1769C194.98 82.1769 193.632 87.3828 193.139 97.7945C192.647 108.14 193.271 113.823 195.013 114.841C196.163 115.498 198.331 115.136 201.519 113.757C204.706 112.377 206.432 111.08 206.695 109.865C207.976 104.051 207.286 97.8766 204.624 91.3405ZM190.823 96.9569C191.381 85.5927 193.501 79.9106 197.181 79.9106C200.369 79.9106 203.458 83.31 206.448 90.1089C209.57 97.269 210.441 103.953 209.06 110.16C208.568 112.262 206.136 114.135 201.765 115.777C197.526 117.386 194.832 117.698 193.682 116.713C192.597 115.826 191.792 113.396 191.266 109.421C190.741 105.611 190.593 101.457 190.823 96.9569Z" fill="#0D131A"/>
<path d="M62.9619 104.248L71.5878 104.79C74.9396 105.382 76.8619 106.153 77.3548 107.106C78.2421 108.912 76.6319 113.543 72.5243 120.999C68.4167 128.52 65.2785 132.281 63.1097 132.281C61.0395 132.281 57.6548 131.247 52.9558 129.177C47.9938 127.01 45.5128 125.236 45.5128 123.857C45.5128 123.068 45.8743 121.886 46.5972 120.309L48.9632 115.678C49.1275 115.416 49.5711 115.251 50.2941 115.186C51.0498 115.153 51.3456 115.268 51.1813 115.53C50.2941 117.173 49.5875 118.766 49.0618 120.309C48.6017 121.656 48.3717 122.625 48.3717 123.216C48.5031 124.103 50.6227 125.466 54.7302 127.305C58.7393 129.112 61.516 130.031 63.0604 130.064C64.5063 129.604 66.8723 126.254 70.1584 120.014C73.4444 113.773 74.8574 109.963 74.3974 108.584C74.1345 108.026 72.7215 107.5 70.1584 107.007L62.5182 106.465C62.1896 106.498 62.1075 106.137 62.2718 105.382C62.4361 104.659 62.6661 104.281 62.9619 104.248Z" fill="#0D131A"/>
<path d="M29.3946 151.052C28.3759 151.544 27.2093 152.908 25.8949 155.141C24.5805 157.342 23.9726 158.869 24.0711 159.723C24.2026 160.61 25.9442 162.235 29.296 164.6C32.6478 166.965 34.8166 168.082 35.8024 167.95C36.7882 167.819 38.3163 165.553 40.3865 161.151C42.4567 156.75 43.2289 154.271 42.7032 153.712C42.1117 153.121 39.9593 152.431 36.246 151.643C32.4671 150.855 30.1832 150.658 29.3946 151.052ZM23.9233 153.86C25.4677 151.298 26.93 149.656 28.3102 148.933L36.8375 149.327C41.5695 150.214 44.3298 151.282 45.1184 152.53C45.8414 153.679 45.0198 156.898 42.6539 162.186C40.2879 167.441 38.3491 170.348 36.8375 170.906C35.6874 171.366 32.9764 170.102 28.7045 167.113C24.3669 164.091 22.0831 161.726 21.853 160.018C21.6887 158.54 22.3788 156.488 23.9233 153.86Z" fill="#0D131A"/>
<path d="M186.288 177.754V177.804C186.354 180.53 187.685 182.517 190.281 183.765C192.614 184.882 194.191 185.062 195.013 184.307C195.867 183.519 196.163 180.53 195.9 175.34C195.637 170.052 194.865 167.113 193.583 166.522C192.893 166.226 191.496 167.704 189.393 170.956C187.323 174.207 186.288 176.473 186.288 177.754ZM187.718 169.28C190.248 165.241 192.203 163.237 193.583 163.27C195.818 163.303 197.214 166.866 197.773 173.961C198.332 180.924 197.871 184.947 196.393 186.031C195.177 186.951 192.959 186.787 189.738 185.538C186.058 184.093 184.169 181.679 184.07 178.296C184.037 176.26 185.253 173.255 187.718 169.28Z" fill="#0D131A"/>
<path d="M209.356 120.408C209.323 121.689 209.143 122.74 208.814 123.561L207.828 125.187C206.218 127.092 202.373 129.489 196.294 132.38C190.018 135.369 184.579 137.323 179.979 138.242C171.599 139.95 158.734 140.098 141.384 138.686C124.033 137.306 113.074 135.237 108.507 132.478C107.751 131.986 107.061 131.181 106.436 130.064C105.878 129.112 105.467 128.061 105.204 126.911C104.711 124.842 104.678 123.676 105.106 123.413C105.533 123.15 106.206 124.103 107.127 126.271C107.685 127.552 108.277 128.537 108.901 129.227L110.873 130.705C114.553 132.708 124.395 134.482 140.398 136.025C157.716 137.701 170.761 137.651 179.535 135.878C183.478 135.057 188.161 133.464 193.583 131.099C198.611 128.898 202.373 126.895 204.871 125.088C205.791 124.399 206.464 123.692 206.892 122.97C207.352 122.214 207.647 121.295 207.779 120.211C208.009 118.24 208.338 117.321 208.765 117.452C209.192 117.616 209.389 118.601 209.356 120.408Z" fill="#0D131A"/>
<path d="M134.631 79.9599C135.781 81.0109 136.898 82.2919 137.983 83.8027C139.133 85.3792 139.954 86.808 140.447 88.0889C141.17 89.9282 141.203 90.9628 140.546 91.1927C139.856 91.3898 139.084 90.6672 138.229 89.025C136.816 86.2332 135.091 83.7042 133.054 81.4379C131.148 79.2373 130.392 77.9564 130.786 77.5951C131.214 77.2338 132.495 78.0221 134.631 79.9599Z" fill="#0D131A"/>
<path d="M190.182 80.3048C189.558 82.1112 189.163 84.049 188.999 86.1183C188.868 87.9247 188.457 88.8115 187.767 88.7787C187.077 88.7787 186.781 87.8919 186.88 86.1183C186.978 83.9505 187.537 81.8156 188.555 79.7136C189.476 77.8414 190.149 76.9546 190.576 77.0532C190.971 77.1845 190.839 78.2684 190.182 80.3048Z" fill="#0D131A"/>
<path d="M168.543 131.936C167.82 131.575 167.245 131.115 166.818 130.557C166.391 130.031 166.243 129.654 166.375 129.424L167.903 129.473C168.855 129.67 169.562 129.982 170.022 130.409C170.614 131 170.729 131.509 170.367 131.936C170.006 132.363 169.398 132.363 168.543 131.936Z" fill="#0D131A"/>
<path d="M185.352 129.473C184.661 130.327 184.037 130.623 183.478 130.36C182.92 130.097 182.887 129.555 183.38 128.734C183.741 128.143 184.316 127.617 185.105 127.157C185.828 126.698 186.288 126.55 186.485 126.714C186.617 126.845 186.584 127.19 186.387 127.749L185.352 129.473Z" fill="#0D131A"/>
<path d="M126.104 85.5763C126.399 85.6748 126.531 86.1511 126.498 87.005C126.465 87.859 126.317 88.2038 126.054 88.0396C124.379 86.9886 122.801 87.7933 121.322 90.4537C119.942 92.8842 118.989 96.2507 118.464 100.553C117.905 104.987 117.971 109.126 118.661 112.969C119.482 117.337 121.01 120.457 123.245 122.329C123.508 122.526 123.343 122.822 122.752 123.216C122.16 123.577 121.733 123.659 121.47 123.462C118.776 121.459 116.919 118.142 115.9 113.511C115.013 109.339 114.915 104.872 115.605 100.11C116.295 95.4132 117.56 91.6689 119.4 88.8772C121.405 85.8883 123.639 84.788 126.104 85.5763Z" fill="#0D131A"/>
<path d="M194.175 82.6203C195.325 81.7335 196.656 82.1112 198.167 83.7534C199.679 85.3628 200.977 87.7605 202.061 90.9464C204.756 98.9276 204.871 106.777 202.406 114.496C202.308 114.791 201.93 115.005 201.273 115.136C200.615 115.235 200.32 115.136 200.385 114.841C202.39 108.6 202.456 101.522 200.583 93.6068C199.827 90.4209 198.89 87.9083 197.773 86.069C196.656 84.1968 195.637 83.5071 194.717 83.9998C194.454 84.164 194.24 84.0162 194.076 83.5564C193.912 83.1294 193.945 82.8174 194.175 82.6203Z" fill="#0D131A"/>
<path d="M190.527 143.81C190.363 143.547 190.708 143.153 191.562 142.627C192.384 142.069 192.86 141.921 192.992 142.184C202.324 157.259 206.481 174.848 205.462 194.948C205.364 196.821 203.934 198.758 201.174 200.762C198.545 202.667 195.292 204.26 191.414 205.541C182.016 208.628 174.951 208.513 170.219 205.196C167.097 202.995 163.861 198.791 160.509 192.584C157.288 186.639 155.645 182.123 155.58 179.035C155.58 178.74 156.04 178.411 156.96 178.05L158.291 177.902C158.356 180.957 159.884 185.276 162.875 190.859C166.062 196.804 169.266 200.91 172.487 203.176C176.594 206.033 182.788 206.116 191.069 203.422C194.421 202.338 197.247 200.992 199.547 199.382C201.946 197.74 203.178 196.229 203.244 194.85C204.197 176.063 199.958 159.049 190.527 143.81Z" fill="#0D131A"/>
<path d="M162.973 175.045C154.462 181.712 144.308 186.228 132.511 188.593C121.569 190.761 111.793 190.646 103.183 188.248C102.888 188.15 102.838 187.641 103.035 186.721C103.2 185.834 103.43 185.424 103.725 185.489C112.171 187.854 121.618 188.002 132.068 185.933C142.682 183.831 152.31 179.84 160.952 173.961C164.238 171.727 166.062 170.841 166.424 171.3C166.752 171.727 165.602 172.976 162.973 175.045Z" fill="#0D131A"/>
<path d="M139.954 184.997C140.119 184.734 140.875 184.504 142.222 184.307L143.996 184.455C141.433 188.659 138.262 192.321 134.483 195.441C130.146 199.021 125.89 201.074 121.717 201.599L106.929 201.156C103.052 200.204 100.768 198.758 100.078 196.821C99.9794 196.525 100.226 196.032 100.817 195.343C101.376 194.62 101.705 194.406 101.803 194.702C102.46 196.541 104.481 197.921 107.866 198.84C111.546 199.859 116.065 200.039 121.421 199.382C124.543 198.988 127.845 197.428 131.329 194.702C134.779 192.009 137.654 188.774 139.954 184.997Z" fill="#0D131A"/>
<path d="M25.2542 23.648C25.517 23.451 26.1578 23.451 27.1765 23.648C28.7538 23.9436 30.134 24.6498 31.317 25.7665C31.5798 25.9636 31.5963 26.2756 31.3663 26.7026C31.1691 27.0967 30.9391 27.1952 30.6762 26.9982C29.9861 26.407 29.3125 26.0128 28.6552 25.8158L27.7187 25.7665L27.9159 27.343L28.2116 30.2991C28.3102 34.7659 26.8479 40.6122 23.8247 47.838C21.4587 53.5858 18.4191 59.5307 14.7059 65.6726C3.00746 85.0837 0.427892 101.834 6.96717 115.925C9.43173 121.245 12.9643 125.597 17.5648 128.98C21.6395 131.936 25.5499 133.546 29.296 133.808C29.5918 133.841 29.5425 134.219 29.1482 134.942C28.7867 135.697 28.4416 136.058 28.113 136.025C23.7426 135.73 19.3721 134.006 15.0016 130.852C10.1382 127.305 6.4414 122.707 3.91113 117.058C-2.66102 102.409 0.181437 84.9523 12.4385 64.6872C18.222 55.0966 22.1488 47.214 24.219 41.0392C26.4207 34.5031 26.7822 29.1988 25.3034 25.126C25.0077 24.3706 24.9913 23.878 25.2542 23.648Z" fill="#0D131A"/>
<path d="M50.7869 21.9237C51.0169 22.1536 51.0169 22.5149 50.7869 23.0076C50.5569 23.5331 50.3269 23.6809 50.0968 23.451C47.6323 20.8891 44.4284 18.8363 40.4851 17.2926C36.7718 15.8803 33.4364 15.2563 30.479 15.4205C29.0988 15.519 28.3595 15.6997 28.2609 15.9624C28.1623 16.1923 28.4909 16.8985 29.2467 18.0809C32.8285 23.7301 32.9271 32.0726 29.5425 43.1084C27.7023 49.0204 24.8269 56.3775 20.9165 65.1799C15.133 80.3869 14.673 93.9516 19.5364 105.874C21.5409 110.801 24.3176 114.972 27.8666 118.388C31.1526 121.574 34.7016 123.725 38.5134 124.842C38.7763 124.908 38.5791 125.236 37.9219 125.827C37.2647 126.386 36.7882 126.632 36.4925 126.566C26.4043 123.61 19.4871 116.089 15.741 104.002C11.8305 91.4883 12.7835 78.1534 18.5998 63.9975L22.9375 54.1934C25.0077 49.3981 26.5686 45.2104 27.6201 41.6304C30.8405 30.8574 30.4626 22.9254 26.4864 17.8345C25.1391 16.0938 24.5148 14.9771 24.6133 14.4844C24.7119 13.9261 25.6978 13.5319 27.5708 13.302C31.0869 12.8422 35.0302 13.3841 39.4007 14.9278C44.034 16.57 47.8294 18.902 50.7869 21.9237Z" fill="#0D131A"/>
<path d="M47.3366 12.4152L49.1604 13.8932C49.3575 14.1231 49.3082 14.5994 49.0125 15.322C48.7168 16.0117 48.4703 16.2416 48.2731 16.0117L47.238 14.78C46.6465 14.1888 46.2029 13.9589 45.9072 14.0903C45.6443 14.2217 45.5457 14.6486 45.6114 15.3712L46.055 18.1794C46.1208 18.4422 45.8579 18.5736 45.2664 18.5736C44.6749 18.5407 44.3627 18.3765 44.3298 18.0809L43.8369 15.0264C43.7055 13.3513 43.9684 12.251 44.6256 11.7255C45.1842 11.2985 46.0879 11.5284 47.3366 12.4152Z" fill="#0D131A"/>
<path d="M122.949 26.3084C130.014 31.9905 133.727 38.855 134.089 46.9019C134.122 47.2304 133.695 47.4767 132.807 47.6409C131.92 47.838 131.476 47.7723 131.476 47.4439C131.148 40.0867 127.829 33.7313 121.52 28.3776C113.929 21.9401 103.315 18.475 89.6776 17.9824C78.012 17.5554 69.6654 16.258 64.6377 14.0903C60.563 12.3495 57.622 9.40994 55.8146 5.27154C55.4203 4.38474 55.0917 3.90849 54.8288 3.8428C54.5331 3.74427 54.0566 4.07271 53.3994 4.82814C51.1977 7.25863 49.8997 10.2311 49.5054 13.7454C49.111 17.3583 49.8668 20.1665 51.7728 22.17C55.6175 26.1114 58.6571 30.7589 60.8916 36.1125C62.2718 39.4298 63.9477 44.9641 65.9193 52.7154C68.3181 62.1418 70.9634 69.1541 73.8552 73.7523C76.1883 77.4637 79.6058 80.8139 84.1077 83.8027C84.3049 83.9012 84.1734 84.3775 83.7134 85.2314C83.2862 86.0526 82.9412 86.381 82.6783 86.2168C76.8948 82.4068 72.7379 78.3669 70.2076 74.0972C67.8745 70.1558 65.6236 63.7511 63.4548 54.8831C61.1216 45.2597 59.38 39.0028 58.2299 36.1125C56.4554 31.5471 53.7773 27.4087 50.1955 23.6973C47.6323 21.0369 46.8108 17.112 47.7309 11.9225C48.6181 7.02872 50.409 3.53078 53.1036 1.42873C54.3195 0.476243 55.1739 0.0492645 55.6668 0.147798C56.1597 0.246331 56.6362 0.936066 57.0962 2.217C59.0678 7.34074 61.8939 10.7237 65.5743 12.3659C69.7147 14.1724 77.7656 15.3055 89.7269 15.7653C103.791 16.258 114.865 19.7724 122.949 26.3084Z" fill="#0D131A"/>
<path d="M137.342 28.7718C143.618 34.1583 146.329 39.9882 145.475 46.2614C145.442 46.557 144.949 46.6884 143.996 46.6556C143.043 46.6227 142.583 46.4585 142.616 46.1629C143.339 40.7764 141.203 35.7184 136.208 30.9888C130.458 25.5694 122.456 22.482 112.204 21.7266C111.875 21.6938 110.922 21.2996 109.345 20.5442C107.735 19.756 107.077 19.3618 107.373 19.3618C120.057 19.3618 130.047 22.4985 137.342 28.7718Z" fill="#0D131A"/>
<path d="M59.5115 155.732C61.286 148.802 63.767 143.613 66.9544 140.164L103.479 150.805C106.667 162.958 106.979 174.536 104.416 185.539C102.871 192.075 100.456 197.904 97.1699 203.028C95.3954 205.82 91.7807 207.659 86.3258 208.546C80.5752 209.499 75.0382 208.924 69.7147 206.822C65.8372 205.311 62.7976 201.616 60.5959 195.737C58.5585 190.383 57.4577 183.962 57.2934 176.473C57.1291 169.149 57.8685 162.235 59.5115 155.732Z" fill="#7CBEB3"/>
<path d="M67.3487 169.28C67.5458 167.277 69.9611 164.567 74.5945 161.151C79.2278 157.736 82.1688 156.504 83.4176 157.456C84.6991 158.409 84.9456 163.598 84.1569 173.025C83.3683 182.451 82.1688 187.23 80.5587 187.361C79.6057 187.427 77.1412 184.8 73.165 179.479C69.156 174.092 67.2172 170.693 67.3487 169.28Z" fill="#006359"/>
<path d="M58.5749 157.801C58.7392 171.892 61.9102 183.634 68.088 193.027C74.003 202.125 81.3966 207.134 90.269 208.053C86.6543 208.973 82.7439 209.269 78.5377 208.94C70.1254 208.283 64.4569 204.802 61.5323 198.496C58.6077 192.222 57.244 183.551 57.4412 172.483L58.5749 157.801Z" fill="#68A198"/>
<path d="M64.8349 145.583C60.563 152.907 58.6242 163.401 59.0185 177.065C59.4457 191.286 62.436 200.433 67.9895 204.506C71.7685 207.265 76.829 208.365 83.1711 207.807C89.2832 207.249 93.3251 205.574 95.2967 202.782C99.7658 196.443 102.69 188.79 104.071 179.824C105.319 171.744 105.155 164.058 103.578 156.767C102.789 153.121 102.69 151.167 103.282 150.904C103.873 150.641 104.662 152.283 105.648 155.831C107.685 163.221 108.096 171.218 106.88 179.824C105.566 189.184 102.559 197.215 97.8599 203.915C95.4282 207.364 90.4005 209.384 82.7768 209.975C75.3174 210.533 69.6982 209.433 65.9193 206.674C63.1918 204.67 60.9409 201.123 59.1664 196.032C57.4576 191.171 56.4225 185.588 56.0611 179.282C55.1738 164.961 57.4412 153.384 62.8632 144.549C64.7691 141.428 66.0836 139.934 66.8065 140.065C67.5623 140.164 66.9051 142.003 64.8349 145.583Z" fill="#0D131A"/>
<path d="M68.5318 168.788C68.466 169.937 70.1584 173.156 73.6087 178.444C77.1248 183.831 79.3758 186.458 80.3616 186.327C81.446 186.163 82.3333 181.712 83.0233 172.975C83.7134 164.206 83.5491 159.46 82.5304 158.737C81.5775 158.081 79.0143 159.312 74.841 162.432C70.7006 165.553 68.5975 167.671 68.5318 168.788ZM66.2644 168.295C66.363 165.898 69.1068 162.876 74.496 159.23C79.7866 155.683 82.9576 154.402 84.0092 155.387C85.7508 157.062 86.2437 162.761 85.4879 172.483C84.6992 182.205 83.3027 187.641 81.2982 188.79C79.918 189.611 77.0427 187.017 72.6722 181.006C68.3017 175.028 66.1658 170.791 66.2644 168.295Z" fill="#0D131A"/>
<path d="M29.0989 203.127C28.9346 202.634 29.559 201.797 30.972 200.614C32.4178 199.432 33.5022 198.89 34.2252 198.988C35.5396 199.153 36.4433 200.581 36.9362 203.275C37.3962 205.771 37.4291 207.199 37.0348 207.561C36.5747 207.988 35.2932 207.725 33.1901 206.772C30.9227 205.754 29.559 204.539 29.0989 203.127Z" fill="white"/>
<path d="M43.7877 206.822C41.4874 205.771 40.3373 204.72 40.3373 203.669C40.3373 202.749 41.0109 201.632 42.3582 200.319C43.6726 199.005 44.6749 198.512 45.365 198.841C46.4494 199.366 47.3366 200.91 48.0267 203.472C48.6839 205.935 48.7168 207.364 48.1253 207.758C47.5009 208.185 46.055 207.873 43.7877 206.822Z" fill="white"/>
<path d="M51.5263 203.816C51.2963 202.109 51.9206 200.532 53.3994 199.087L55.716 197.412C56.9319 197.937 57.8848 199.514 58.5749 202.141C59.1993 204.506 59.3471 205.886 59.0185 206.28L55.1245 206.181C52.8243 205.623 51.6249 204.835 51.5263 203.816Z" fill="white"/>
<path d="M70.8976 207.955C70.8319 207.101 71.1277 206.181 71.7849 205.196C72.5735 204.014 73.5758 203.439 74.7916 203.472C76.0075 203.504 76.944 203.964 77.6012 204.851C78.127 205.672 78.357 206.674 78.2913 207.856C78.2256 208.94 77.8477 210.155 77.1576 211.502C76.5004 212.849 75.9746 213.522 75.5803 213.522C75.1531 213.522 74.2987 212.816 73.0171 211.404C71.6699 209.926 70.9634 208.776 70.8976 207.955Z" fill="white"/>
<path d="M80.7066 209.039C80.608 207.429 81.0516 206.099 82.0374 205.048C82.8261 204.161 83.6147 203.718 84.4034 203.718C84.9949 203.718 85.685 204.161 86.4736 205.048C87.2623 205.968 87.7552 206.887 87.9523 207.807C88.0838 208.398 87.9359 209.416 87.5087 210.862C87.0815 212.405 86.5722 213.325 85.9807 213.621C85.3892 213.949 84.4034 213.588 83.0232 212.537C81.5445 211.453 80.7723 210.287 80.7066 209.039Z" fill="white"/>
<path d="M90.417 208.743C89.4969 207.758 89.579 206.263 90.6634 204.26C91.7478 202.256 92.8158 201.402 93.8673 201.698C94.8532 202.026 95.8061 203.406 96.7262 205.836C97.5806 208.168 97.7942 209.663 97.367 210.32C96.9727 210.911 95.954 211.042 94.311 210.714C92.6351 210.353 91.3371 209.696 90.417 208.743Z" fill="white"/>
<path d="M107.176 199.777C107.045 199.087 107.685 198.233 109.098 197.215C110.478 196.229 111.481 195.868 112.105 196.131C113.189 196.623 113.896 198.003 114.225 200.269C114.553 202.47 114.422 203.701 113.83 203.964C113.239 204.227 112.072 203.915 110.331 203.028C108.458 202.043 107.406 200.959 107.176 199.777Z" fill="white"/>
<path d="M120.534 203.127C118.529 202.437 117.363 201.649 117.034 200.762C116.738 200.006 117.248 198.923 118.562 197.51C119.877 196.131 120.83 195.572 121.421 195.835C122.571 196.328 123.376 197.592 123.836 199.629C124.231 201.402 124.263 202.618 123.935 203.275L120.534 203.127Z" fill="white"/>
<path d="M125.907 199.038C125.512 198.249 126.071 197.116 127.582 195.638C129.061 194.193 130.129 193.602 130.786 193.865C131.542 194.193 132.282 195.392 133.004 197.461C133.695 199.497 133.875 200.746 133.547 201.205L129.801 201.107C127.632 200.581 126.334 199.892 125.907 199.038Z" fill="white"/>
<path d="M181.803 206.625C181.343 206.165 181.704 204.982 182.887 203.077C184.07 201.14 185.072 200.187 185.894 200.22C186.978 200.286 188.194 201.468 189.541 203.767C190.823 205.935 191.316 207.216 191.02 207.61C190.659 208.07 189.262 208.218 186.83 208.053C184.3 207.889 182.624 207.413 181.803 206.625Z" fill="white"/>
<path d="M192.548 203.915C192.088 203.422 192.384 202.191 193.435 200.22C194.454 198.249 195.341 197.297 196.097 197.363C196.82 197.428 197.839 198.578 199.153 200.811C200.402 203.012 200.911 204.358 200.681 204.851C200.385 205.344 199.186 205.524 197.083 205.393C194.848 205.262 193.337 204.769 192.548 203.915Z" fill="white"/>
<path d="M200.78 199.382C200.254 198.726 200.418 197.477 201.272 195.638C202.094 193.865 202.751 193.011 203.244 193.076C204.099 193.175 205.15 194.259 206.399 196.328C207.615 198.364 208.075 199.645 207.779 200.171C207.549 200.729 206.514 200.943 204.674 200.811C202.735 200.68 201.437 200.204 200.78 199.382Z" fill="white"/>
<path d="M31.2184 200.319L33.3872 203.028C34.833 205.032 35.6381 206.592 35.8024 207.709L32.3521 205.935C30.0847 204.654 29.0167 203.734 29.1481 203.176C29.2796 202.618 29.6739 201.977 30.3311 201.255L31.2184 200.319Z" fill="#DBDCDC"/>
<path d="M42.3089 200.516L44.182 202.831C45.4964 204.67 46.3672 206.329 46.7944 207.807C42.7525 206.395 40.6823 204.999 40.5837 203.619C40.518 202.765 40.7809 201.994 41.3724 201.304L42.3089 200.516Z" fill="#DBDCDC"/>
<path d="M57.7863 206.625C55.6832 206.165 54.1716 205.705 53.2515 205.245C52.2 204.753 51.6085 204.145 51.477 203.422C51.3456 202.798 51.477 202.076 51.8714 201.255L52.5121 200.22C53.3994 200.647 54.4838 201.698 55.7653 203.373C56.8497 204.818 57.5234 205.902 57.7863 206.625Z" fill="#DBDCDC"/>
<path d="M72.8694 204.506L73.3623 207.511C73.7895 209.778 74.3153 211.551 74.9396 212.832L73.0665 211.206C71.8507 209.86 71.2756 208.48 71.3414 207.068C71.4071 206.083 71.6535 205.36 72.0807 204.9C72.4093 204.539 72.6722 204.408 72.8694 204.506Z" fill="#DBDCDC"/>
<path d="M81.7418 206.083L83.6148 209.137L86.0794 213.67C85.1593 213.374 84.2392 212.947 83.3191 212.389C81.4789 211.272 80.6245 210.073 80.7559 208.792C80.8874 207.544 81.0845 206.723 81.3474 206.329L81.7418 206.083Z" fill="#DBDCDC"/>
<path d="M90.6634 204.309L92.9801 206.526C94.6231 208.201 95.6253 209.597 95.9868 210.714L92.9308 209.728C90.8934 208.94 89.9076 208.168 89.9733 207.413L90.3676 205.196L90.6634 204.309Z" fill="#DBDCDC"/>
<path d="M108.803 197.56C109.098 197.757 109.723 198.496 110.676 199.777C111.859 201.386 112.516 202.683 112.647 203.669L109.098 201.994C108.178 201.435 107.702 200.729 107.669 199.875C107.636 199.251 107.817 198.676 108.211 198.151L108.803 197.56Z" fill="#DBDCDC"/>
<path d="M118.02 197.855L119.647 198.988C120.895 200.138 121.98 201.649 122.9 203.521L120.238 202.782C118.431 202.125 117.428 201.37 117.231 200.516C117.034 199.662 117.1 198.972 117.428 198.446L118.02 197.855Z" fill="#DBDCDC"/>
<path d="M127.287 195.885L129.308 197.363C130.753 198.643 131.739 199.974 132.265 201.353L129.455 200.959C127.484 200.466 126.317 199.727 125.956 198.742C125.759 198.282 125.841 197.707 126.202 197.018C126.531 196.361 126.892 195.983 127.287 195.885Z" fill="#DBDCDC"/>
<path d="M183.084 202.831C185.844 204.145 188.062 205.787 189.738 207.758L186.042 207.807C183.577 207.676 182.295 207.183 182.197 206.329C182.098 205.475 182.213 204.638 182.542 203.816L183.084 202.831Z" fill="#DBDCDC"/>
<path d="M193.386 200.713C193.945 200.877 194.881 201.37 196.196 202.191C197.97 203.275 199.071 204.309 199.498 205.294L196.048 205.147C193.715 204.884 192.532 204.375 192.499 203.619C192.433 202.897 192.564 202.191 192.893 201.501L193.386 200.713Z" fill="#DBDCDC"/>
<path d="M201.174 195.885L203.343 197.215C204.953 198.331 206.07 199.514 206.695 200.762L204.131 200.565C202.357 200.302 201.256 199.859 200.829 199.235C200.402 198.611 200.336 197.855 200.632 196.968L201.174 195.885Z" fill="#DBDCDC"/>
<path d="M180.866 206.92C180.603 205.968 181.129 204.441 182.443 202.338C183.758 200.204 184.891 199.12 185.844 199.087C186.797 199.054 188.128 200.302 189.837 202.831C191.513 205.294 192.236 206.97 192.006 207.856C191.809 208.645 189.968 208.891 186.485 208.595C183.002 208.3 181.129 207.741 180.866 206.92ZM184.07 203.077C183.248 204.391 182.92 205.344 183.084 205.935C183.413 206.395 184.579 206.772 186.584 207.068C188.523 207.364 189.574 207.347 189.738 207.019C189.903 206.658 189.459 205.607 188.408 203.866C187.29 202.092 186.419 201.189 185.795 201.156C185.434 201.123 184.859 201.764 184.07 203.077Z" fill="#0D131A"/>
<path d="M199.646 204.457C199.843 204.161 199.416 203.11 198.364 201.304C197.346 199.497 196.573 198.545 196.048 198.446C195.653 198.414 195.095 199.103 194.372 200.516C193.616 201.928 193.304 202.913 193.435 203.472C193.534 203.964 194.569 204.326 196.541 204.555L199.646 204.457ZM196.294 196.229C197.346 196.361 198.594 197.822 200.04 200.614C201.42 203.275 201.963 204.917 201.667 205.541C201.371 206.198 199.81 206.395 196.984 206.132C194.092 205.836 192.351 205.278 191.759 204.457C191.234 203.734 191.579 202.174 192.794 199.777C194.01 197.28 195.177 196.098 196.294 196.229Z" fill="#0D131A"/>
<path d="M201.913 196.18C201.42 197.297 201.322 198.216 201.618 198.939C201.749 199.333 202.62 199.645 204.23 199.875L206.842 199.727C207.04 199.399 206.695 198.446 205.807 196.87C204.92 195.195 204.148 194.374 203.491 194.407C202.932 194.472 202.406 195.063 201.913 196.18ZM200.829 194.948C201.848 193.076 202.718 192.14 203.441 192.14C204.657 192.14 205.939 193.503 207.286 196.229C208.6 198.857 209.061 200.499 208.666 201.156L204.279 201.304C201.585 200.975 200.122 200.516 199.892 199.924C199.399 198.643 199.712 196.985 200.829 194.948Z" fill="#0D131A"/>
<path d="M85.9807 205.738C85.4221 205.081 84.8799 204.785 84.3541 204.851C83.5983 204.884 82.9247 205.36 82.3332 206.28C81.7417 207.167 81.4952 208.021 81.5938 208.842C81.6924 209.597 82.3332 210.451 83.5162 211.404C84.6663 212.29 85.4385 212.652 85.8328 212.487C86.0957 212.389 86.3751 211.913 86.6708 211.059C87.0651 210.073 87.1966 209.154 87.0651 208.3C86.9665 207.282 86.6051 206.428 85.9807 205.738ZM80.8545 205.097C81.9717 203.455 83.1876 202.683 84.502 202.782C85.455 202.848 86.3093 203.34 87.0651 204.26C87.8209 205.18 88.2974 206.313 88.4946 207.659C88.7246 208.973 88.626 210.402 88.1988 211.945C87.7716 213.456 87.2459 214.327 86.6215 214.557C85.8329 214.852 84.5677 214.425 82.8261 213.276C80.953 211.995 79.8851 210.599 79.6222 209.088C79.425 207.938 79.8358 206.608 80.8545 205.097Z" fill="#0D131A"/>
<path d="M76.5661 205.639C76.1389 205.048 75.6624 204.72 75.1367 204.654C74.5123 204.588 73.8551 204.851 73.165 205.442C72.4421 206.033 72.0806 206.674 72.0806 207.364C72.1135 208.218 72.59 209.236 73.5101 210.418C74.3316 211.535 74.9395 212.093 75.3338 212.093C75.6953 212.06 76.0896 211.584 76.5168 210.665C76.9769 209.745 77.2233 208.825 77.2562 207.906C77.289 207.052 77.059 206.296 76.5661 205.639ZM71.4891 204.014C72.705 202.93 73.9701 202.47 75.2845 202.634C76.3689 202.765 77.3055 203.357 78.0941 204.408C78.8499 205.459 79.195 206.625 79.1292 207.906C79.0964 208.957 78.6856 210.303 77.897 211.945C77.0426 213.653 76.3032 214.54 75.6789 214.606C74.9559 214.704 73.8222 213.867 72.2778 212.093C70.6347 210.254 69.7804 208.694 69.7146 207.413C69.6489 206.198 70.2404 205.065 71.4891 204.014Z" fill="#0D131A"/>
<path d="M95.5432 204.654C94.7874 203.603 94.0973 203.077 93.473 203.077C92.8486 203.012 92.2243 203.472 91.5999 204.457C90.9427 205.475 90.6963 206.428 90.8606 207.314C91.0249 208.103 91.945 208.792 93.6209 209.384C95.231 209.909 96.1676 210.057 96.4305 209.827C96.6605 209.63 96.7098 208.94 96.5783 207.758C96.4469 206.477 96.1019 205.442 95.5432 204.654ZM93.818 200.91C95.4282 201.14 96.6933 202.831 97.6134 205.984C98.4678 208.94 98.6321 210.714 98.1064 211.305L93.473 211.009C90.7127 210.254 89.2175 209.269 88.9875 208.053C88.7246 206.707 89.1025 205.163 90.1212 203.422C91.2385 201.55 92.4707 200.713 93.818 200.91Z" fill="#0D131A"/>
<path d="M59.4621 201.747C60.2836 204.9 60.3658 206.674 59.7086 207.068C58.8542 207.561 57.1783 207.462 54.6809 206.772C52.0849 206.05 50.639 205.18 50.3433 204.161C49.949 202.946 50.409 201.386 51.7234 199.481C53.0707 197.51 54.418 196.574 55.7653 196.673C57.3426 196.771 58.5749 198.463 59.4621 201.747ZM52.4135 203.373C52.5121 204.063 53.4158 204.687 55.1245 205.245C56.7676 205.771 57.7698 205.869 58.1313 205.541C58.3942 205.311 58.2463 204.211 57.6877 202.24C57.0962 200.138 56.4061 199.021 55.6174 198.89C54.9602 198.791 54.2373 199.235 53.4486 200.22C52.5614 201.271 52.2163 202.322 52.4135 203.373Z" fill="#0D131A"/>
<path d="M41.5202 203.669C41.5202 204.424 42.4239 205.212 44.2312 206.033C46.0057 206.822 47.0244 207.035 47.2873 206.674C47.583 206.313 47.5009 205.245 47.0408 203.472C46.5479 201.567 45.9071 200.532 45.1185 200.368C44.3627 200.204 43.574 200.548 42.7525 201.402C41.9967 202.191 41.5859 202.913 41.5202 203.57V203.669ZM41.4709 199.777C42.8839 198.463 44.1326 197.904 45.2171 198.102C46.8601 198.397 48.0431 200.121 48.766 203.275C49.4561 206.263 49.4725 208.037 48.8153 208.595C48.1909 209.187 46.4493 208.858 43.5904 207.61C40.6001 206.362 39.1707 204.95 39.3021 203.373C39.4007 202.256 40.1236 201.058 41.4709 199.777Z" fill="#0D131A"/>
<path d="M126.892 198.348C126.991 199.005 127.944 199.629 129.751 200.22C131.493 200.778 132.479 200.91 132.709 200.614C132.939 200.319 132.791 199.3 132.265 197.56C131.706 195.72 131.099 194.768 130.441 194.702C129.883 194.636 129.127 195.063 128.174 195.983C127.221 196.936 126.794 197.724 126.892 198.348ZM126.942 195.047C128.65 193.405 129.998 192.748 130.984 193.076C132.232 193.536 133.251 195.096 134.04 197.757C134.795 200.286 134.927 201.78 134.434 202.24C133.941 202.667 132.331 202.519 129.603 201.797C126.81 201.041 125.249 200.204 124.921 199.284C124.526 198.134 125.2 196.722 126.942 195.047Z" fill="#0D131A"/>
<path d="M120.632 202.289C122.078 202.782 122.916 202.913 123.146 202.683C123.376 202.453 123.327 201.517 122.998 199.875C122.637 198.134 122.128 197.182 121.47 197.018C120.813 196.853 120.041 197.215 119.154 198.102C118.266 199.021 117.905 199.826 118.069 200.516C118.266 201.205 119.121 201.797 120.632 202.289ZM121.865 195.195C122.949 195.458 123.853 196.886 124.576 199.481C125.233 202.01 125.299 203.669 124.773 204.457C124.444 204.95 122.982 204.736 120.386 203.816C117.691 202.864 116.245 201.862 116.048 200.811C115.818 199.76 116.443 198.496 117.921 197.018C119.433 195.507 120.747 194.899 121.865 195.195Z" fill="#0D131A"/>
<path d="M110.676 202.191C112.121 202.979 112.992 203.275 113.288 203.077C113.551 202.913 113.584 201.961 113.387 200.22C113.157 198.381 112.697 197.346 112.006 197.116C111.349 196.886 110.561 197.116 109.64 197.806C108.753 198.463 108.326 199.12 108.359 199.777C108.392 200.565 109.164 201.37 110.676 202.191ZM112.549 195.293C113.929 195.589 114.75 197.215 115.013 200.171C115.243 202.963 115.079 204.555 114.52 204.95C113.896 205.344 112.351 204.884 109.887 203.57C107.39 202.191 106.092 200.992 105.993 199.974C105.894 199.021 106.601 197.937 108.112 196.722C109.723 195.474 111.201 194.998 112.549 195.293Z" fill="#0D131A"/>
<path d="M32.9929 205.294C34.7345 206.181 35.7368 206.46 35.9997 206.132C36.2954 205.804 36.2461 204.769 35.8518 203.028C35.4246 201.222 34.9153 200.236 34.3238 200.072C33.6337 199.842 32.7957 200.105 31.8099 200.86C30.8241 201.616 30.3312 202.355 30.3312 203.077C30.3641 203.636 31.2513 204.375 32.9929 205.294ZM34.7674 197.855C36.1804 198.151 37.1826 199.875 37.7741 203.028C38.3328 206.05 38.3163 207.741 37.7249 208.103C36.7062 208.792 34.866 208.431 32.2043 207.019C29.5754 205.639 28.2117 204.408 28.1131 203.324C27.9817 202.076 28.7539 200.778 30.4298 199.432C32.0728 198.118 33.5187 197.592 34.7674 197.855Z" fill="#0D131A"/>
</svg>
