<svg width="280" height="204" viewBox="0 0 280 204" fill="none" xmlns="http://www.w3.org/2000/svg">
<path d="M278.549 111.937C276.839 117.974 273.58 122.247 268.77 124.758C265.19 126.521 260.274 127.51 254.021 127.723C247.128 127.616 242.265 127.697 239.433 127.964C234.677 128.445 231.577 130.02 230.135 132.692C227.516 137.553 228.371 142.041 232.7 146.154C234.784 148.131 240.128 151.55 248.731 156.412C256.533 160.792 261.743 164.719 264.362 168.191C268.316 173.427 268.663 179.437 265.404 186.222C262.625 192.098 257.682 194.796 250.575 194.315C242.719 192.659 237.349 192.098 234.463 192.633C231.203 193.22 227.489 195.304 223.321 198.883C219.581 202.088 215.974 203.691 212.5 203.691C209.347 203.691 206.248 202.783 203.202 200.967L195.186 194.956C187.865 189.24 179.93 186.542 171.38 186.863C167.158 187.023 163.337 187.931 159.917 189.587L151.501 194.796C144.287 199.658 136.271 202.088 127.454 202.088C118.529 202.088 110.46 198.643 103.246 191.751L94.7495 183.577C91.3295 180.746 87.856 178.823 84.3291 177.808C78.9319 176.258 72.84 176.258 66.0534 177.808C62.3127 178.662 56.5681 180.586 48.8196 183.577C42.0864 186.142 37.1968 187.584 34.1509 187.905C29.5018 188.385 25.9214 187.023 23.4099 183.818C18.9745 178.048 20.4173 170.729 27.7383 161.861L35.3532 152.725C37.4908 149.627 37.945 147.249 36.7159 145.593C35.38 143.724 32.9485 142.468 29.4216 141.827L19.1615 140.545C9.80989 139.209 3.82484 134.668 1.20638 126.922C-0.93114 120.565 -0.0761327 113.94 3.7714 107.049C6.71049 101.866 12.4284 95.055 20.925 86.6141L45.3729 62.0928C55.4726 51.3013 63.7555 40.6167 70.2215 30.0389L77.3555 17.7782C79.7602 13.6112 81.8977 10.486 83.768 8.40246C88.4706 3.00671 95.0434 0.308838 103.487 0.308838C108.029 0.308838 113.373 2.23207 119.518 6.07855C125.663 9.8716 131.114 11.7681 135.87 11.7681C141.374 11.7681 148.615 10.0319 157.593 6.55936C165.982 3.30054 172.849 1.91154 178.193 2.39234C184.712 2.98 190.083 5.43747 194.304 9.76475C197.404 12.9701 200.477 17.9919 203.523 24.8301L211.618 42.7002C215.252 49.4849 219.5 54.7471 224.363 58.4868C227.463 60.8908 233.127 64.1229 241.357 68.1831C250.922 72.8309 257.548 76.3301 261.236 78.6808C276.412 88.1901 282.183 99.2754 278.549 111.937Z" fill="#0D131A"/>
<path d="M275.263 112.177C273.873 116.932 270.881 120.191 266.285 121.954C263.079 123.182 258.296 123.85 251.937 123.957L237.509 124.598C232.753 125.399 229.627 127.349 228.131 130.448C225.245 136.538 225.833 141.961 229.894 146.715C232.352 149.6 237.536 153.26 245.444 157.694C253.514 162.235 258.751 165.841 261.155 168.512C265.27 173.106 265.938 178.315 263.159 184.138C260.594 189.481 255.892 191.885 249.052 191.35C241.463 189.748 236.307 189.187 233.581 189.668C230.696 190.202 227.222 192.125 223.161 195.437C219.527 198.376 215.733 199.845 211.779 199.845C209.748 199.845 207.316 198.99 204.484 197.28L195.988 191.591C187.705 186.195 179.315 183.657 170.818 183.978C166.811 184.138 163.177 184.993 159.917 186.542C158.474 187.183 155.802 188.786 151.901 191.35C144.954 195.945 137.046 198.242 128.175 198.242C120.213 198.242 112.33 194.689 104.529 187.584L95.3907 179.571C91.8638 176.899 88.2834 175.217 84.6496 174.522C77.2752 173.08 65.6524 174.923 49.7814 180.051C42.781 182.349 37.8647 183.684 35.0325 184.058C30.5437 184.753 27.3909 184.058 25.574 181.975C21.8333 177.701 23.57 171.183 30.7842 162.422L38.3189 152.886C40.5633 149.627 41.2046 147.116 40.2427 145.353C38.7464 142.468 36.2348 140.491 32.7079 139.423L22.2875 137.74C17.7453 137.206 14.2718 136.271 11.8671 134.935C8.39366 133.012 5.88207 129.86 4.33237 125.48C2.56892 120.511 3.74455 114.661 7.85928 107.93C10.9587 102.962 16.73 96.0967 25.1732 87.3353L48.8996 62.5736C58.465 52.0493 66.0799 42.1125 71.7444 32.7635C79.0119 20.9035 83.6878 13.8249 85.7718 11.5277C90.795 5.9717 96.9671 3.1937 104.288 3.1937C108.563 3.1937 113.479 5.06351 119.037 8.80314C124.541 12.4893 130.713 14.3057 137.553 14.2523C143.325 14.1989 150.458 12.4626 158.955 9.04354C166.811 5.89157 173.223 4.55599 178.193 5.0368C183.75 5.57103 188.399 8.00179 192.14 12.3291C194.865 15.4276 197.724 20.4227 200.717 27.3143L208.813 44.944C212.34 51.515 216.428 56.5902 221.077 60.1696C224.069 62.4668 229.627 65.5119 237.749 69.305C247.315 73.7925 253.968 77.1582 257.708 79.402C273.045 88.6442 278.897 99.5693 275.263 112.177Z" fill="#E097BF"/>
<path d="M161.36 49.7521C161.306 49.2713 161.44 48.8439 161.761 48.4699C162.081 48.1494 162.482 47.9624 162.963 47.909C163.444 47.8555 163.871 47.9891 164.245 48.3096C164.62 48.5768 164.833 48.9774 164.887 49.5117C164.94 49.9925 164.807 50.4199 164.486 50.7938L163.284 51.3548C162.108 51.4616 161.467 50.9274 161.36 49.7521Z" fill="#0D131A"/>
<path d="M113.747 47.6686C113.693 47.1878 113.8 46.7604 114.067 46.3864C114.388 46.0659 114.789 45.8789 115.27 45.8255C116.445 45.7186 117.086 46.2528 117.193 47.4282L116.792 48.7103L115.59 49.2713C115.109 49.3247 114.682 49.1911 114.308 48.8706L113.747 47.6686Z" fill="#0D131A"/>
<path d="M11.787 130.368C14.1917 131.276 17.3178 131.997 21.1654 132.531C32.1201 134.027 38.9068 136.405 41.5252 139.663C43.9834 142.709 43.0215 146.982 38.6396 152.485C40.6168 149.44 41.1512 147.063 40.2427 145.353C38.7465 142.468 36.2349 140.491 32.708 139.423L22.2876 137.74C17.7453 137.206 14.2719 136.271 11.8672 134.935C8.39368 133.012 5.8821 129.86 4.3324 125.48C6.46992 127.616 8.95478 129.246 11.787 130.368Z" fill="#C283A6"/>
<path d="M264.442 118.668C269.785 117.119 273.526 114.448 275.664 110.655L275.263 112.177C273.873 116.932 270.881 120.191 266.285 121.954C263.079 123.182 258.296 123.85 251.937 123.957L237.509 124.598C232.753 125.399 229.627 127.349 228.13 130.448C226.153 134.668 225.806 138.568 227.088 142.148C223.187 137.072 222.359 132.291 224.604 127.803C226.901 123.369 231.203 121.152 237.509 121.152C249.693 121.152 258.67 120.324 264.442 118.668Z" fill="#C283A6"/>
<path d="M77.7562 167.15C83.1534 167.15 88.043 168.512 92.4249 171.237C94.9899 172.839 98.4367 175.804 102.765 180.132C107.094 184.459 110.621 187.424 113.346 189.026C117.835 191.751 122.885 193.113 128.496 193.113C137.259 193.113 145.355 190.442 152.783 185.1C156.738 182.268 159.57 180.425 161.28 179.571C164.753 177.914 168.574 177.086 172.742 177.086C181.559 177.086 189.602 180.132 196.869 186.222L204.484 192.472C207.263 194.342 210.015 195.277 212.74 195.277C216.107 195.277 219.607 193.407 223.241 189.668C226.875 185.928 231.07 184.058 235.826 184.058C239.032 184.058 243.948 185.153 250.575 187.344C254.903 188.733 258.751 188.279 262.117 185.981C259.392 190.202 254.769 191.965 248.25 191.27L240.395 189.988L233.581 189.668C230.696 190.202 227.222 192.125 223.161 195.437C219.527 198.376 215.733 199.845 211.779 199.845C209.748 199.845 207.317 198.99 204.484 197.28L195.988 191.591C187.705 186.195 179.315 183.657 170.818 183.978C166.811 184.138 163.177 184.993 159.917 186.542C158.474 187.183 155.802 188.786 151.901 191.35C144.954 195.945 137.046 198.242 128.175 198.242C120.213 198.242 112.331 194.689 104.529 187.584L95.3907 179.571C91.8638 176.899 88.2835 175.217 84.6497 174.522C77.2752 173.08 65.6525 174.923 49.7814 180.051C42.781 182.349 37.8647 183.684 35.0325 184.058C30.5437 184.753 27.3909 184.058 25.574 181.975C24.8793 181.227 24.3717 180.399 24.051 179.49C29.9826 183.177 38.5862 182.349 49.8616 177.006L63.7287 170.435C69.0725 168.245 73.7483 167.15 77.7562 167.15Z" fill="#C283A6"/>
<path d="M136.591 71.1481C154.119 72.0563 166.624 72.3234 174.105 71.9494C175.922 71.8426 177.685 71.0946 179.395 69.7056C179.983 69.2248 180.41 69.0913 180.678 69.305C180.945 69.5187 180.865 69.9193 180.437 70.507L177.632 73.0713C176.67 73.4987 175.414 73.7658 173.864 73.8726C164.085 74.3535 152.088 74.2199 137.874 73.472L99.639 70.1864L96.4327 68.9844L93.7876 66.6605C92.8257 65.4318 92.5051 64.7106 92.8257 64.4969C93.0929 64.3366 93.7876 64.7373 94.9098 65.6989C96.5129 67.0345 98.1962 67.8358 99.9596 68.1029L136.591 71.1481Z" fill="#0D131A"/>
</svg>
