<svg width="144" height="210" viewBox="0 0 144 210" fill="none" xmlns="http://www.w3.org/2000/svg">
<path d="M131.535 127.739C127.988 127.431 124.878 125.969 122.204 123.353C120.611 121.814 119.737 119.505 119.583 116.427L119.043 109.425C118.734 108.347 117.989 107.142 116.807 105.808L113.336 102.422C112.154 101.294 111.64 100.473 111.794 99.9597C111.897 99.4467 112.797 99.1645 114.493 99.1132C125.392 98.7028 133.334 100.909 138.321 105.731C141.508 108.809 143.128 112.477 143.179 116.735C143.231 120.634 142.074 123.558 139.709 125.508C137.55 127.252 134.825 127.996 131.535 127.739Z" fill="#0D131A"/>
<path d="M138.398 123.353C136.496 125.097 134.183 125.892 131.458 125.738C128.682 125.482 126.137 124.251 123.824 122.045C122.539 120.814 121.767 118.736 121.51 115.812L120.971 108.963C120.559 107.27 119.094 105.321 116.575 103.115L114.724 101.191C114.673 100.832 115.547 100.704 117.346 100.806C126.24 101.422 132.666 103.653 136.625 107.501C139.144 109.912 140.532 112.785 140.789 116.119C140.994 119.3 140.198 121.711 138.398 123.353Z" fill="#CAD3CC"/>
<path d="M138.398 123.353C136.496 125.097 134.183 125.892 131.458 125.738C128.682 125.482 126.137 124.251 123.824 122.045C123.001 121.327 122.436 120.352 122.127 119.121C125.983 121.07 129.71 121.455 133.309 120.275C137.113 119.095 139.324 116.53 139.94 112.58C140.763 114.632 141.02 116.658 140.712 118.659C140.403 120.66 139.632 122.224 138.398 123.353Z" fill="#A6ADA8"/>
<path d="M125.058 151.748C120.431 151.235 117.012 149.439 114.802 146.361C112.231 142.77 111.023 139.025 111.177 135.126C111.28 130.868 112.977 127.585 116.267 125.277C119.403 123.019 122.976 122.276 126.985 123.045C131.252 123.815 134.748 126.097 137.473 129.894C139.889 133.28 140.814 136.999 140.249 141.052C139.683 145.156 137.756 148.234 134.465 150.286C132.203 151.722 129.067 152.21 125.058 151.748Z" fill="#0D131A"/>
<path d="M126.908 125.2C130.301 126.021 133.077 127.919 135.237 130.894C137.396 133.921 138.295 137.178 137.936 140.667C137.576 144.104 136.059 146.772 133.386 148.67C130.713 150.568 127.679 151.132 124.287 150.363C120.894 149.593 118.117 147.695 115.958 144.668C113.799 141.693 112.899 138.461 113.259 134.973C113.619 131.484 115.136 128.791 117.809 126.893C120.482 124.995 123.515 124.43 126.908 125.2Z" fill="#E3C582"/>
<path d="M135.776 131.818C137.627 134.742 138.321 137.82 137.858 141.052C137.396 144.335 135.905 146.874 133.386 148.67C130.713 150.568 127.679 151.132 124.286 150.363C120.893 149.593 118.117 147.695 115.958 144.668C114.313 142.309 113.414 139.872 113.259 137.358L113.799 138.204C115.958 141.231 118.734 143.129 122.127 143.899C125.52 144.668 128.553 144.104 131.227 142.206C132.872 141.077 134.08 139.564 134.851 137.666C135.622 135.87 135.931 133.921 135.776 131.818Z" fill="#BFA56F"/>
<path d="M105.24 141.052C108.427 138.23 112.36 137.127 117.038 137.743C121.716 138.307 125.752 140.41 129.145 144.053C132.538 147.746 134.157 152.107 134.003 157.134C133.849 161.854 132.281 165.445 129.299 167.908C126.163 170.575 122.23 171.704 117.501 171.294C112.462 170.883 108.273 168.754 104.931 164.907C101.538 160.956 99.9444 156.621 100.15 151.902C100.356 147.387 102.052 143.771 105.24 141.052Z" fill="#0D131A"/>
<path d="M106.705 142.745C109.584 140.231 113.054 139.231 117.115 139.744C121.228 140.308 124.698 142.232 127.525 145.515C130.404 148.798 131.818 152.492 131.766 156.596C131.766 160.7 130.301 164.009 127.371 166.523C124.492 169.036 121.022 170.011 116.961 169.447C112.899 168.934 109.429 167.036 106.55 163.752C103.672 160.469 102.232 156.775 102.232 152.671C102.284 148.567 103.774 145.258 106.705 142.745Z" fill="#E3C582"/>
<path d="M116.961 169.447C112.899 168.934 109.429 167.036 106.55 163.752C104.288 161.187 102.926 158.34 102.463 155.211L103.312 156.211C106.191 159.494 109.661 161.392 113.722 161.905C117.783 162.47 121.253 161.495 124.132 158.981C125.88 157.494 127.114 155.621 127.834 153.364C128.553 151.209 128.733 148.926 128.373 146.515C130.841 149.747 131.972 153.287 131.766 157.135C131.612 161.033 130.147 164.163 127.371 166.523C124.492 169.036 121.022 170.011 116.961 169.447Z" fill="#BFA56F"/>
<path d="M84.2647 156.365C87.8633 152.466 92.4387 150.286 97.9909 149.824C103.749 149.311 108.992 151.235 113.722 155.595C118.4 159.853 120.868 164.778 121.125 170.37C121.433 175.911 119.403 180.451 115.033 183.99C111.537 186.863 107.964 188.325 104.314 188.377C97.5282 188.479 91.8218 186.735 87.195 183.144C82.3626 179.348 79.7921 174.423 79.4837 168.369C79.2781 163.958 80.8717 159.956 84.2647 156.365Z" fill="#0D131A"/>
<path d="M89.894 181.22C86.0897 177.783 83.9049 173.679 83.3394 168.908C82.8253 164.086 84.0848 160.007 87.1179 156.673C90.0996 153.338 94.0324 151.697 98.9162 151.748C103.749 151.799 108.067 153.543 111.871 156.981C115.676 160.418 117.835 164.522 118.349 169.293C118.914 174.115 117.68 178.194 114.647 181.528C111.614 184.863 107.681 186.504 102.849 186.453C98.0166 186.402 93.6982 184.657 89.894 181.22Z" fill="#E3C582"/>
<path d="M118.503 171.37C118.452 175.321 117.166 178.707 114.647 181.528C111.614 184.863 107.681 186.504 102.849 186.453C98.0166 186.402 93.6982 184.657 89.894 181.22C86.501 178.245 84.3932 174.577 83.5707 170.216L86.6552 173.679C90.4595 177.116 94.7778 178.86 99.6102 178.912C104.443 178.963 108.375 177.321 111.409 173.987C114.802 170.242 115.984 165.727 114.956 160.443C117.321 163.829 118.503 167.472 118.503 171.37Z" fill="#BFA56F"/>
<path d="M63.9068 199.996C58.8174 197.534 54.7561 192.789 51.7229 185.76C49.5638 180.733 49.4866 175.398 51.4916 169.755C53.6508 163.598 57.8149 159.187 63.9839 156.519C70.7699 153.595 77.9414 153.543 85.4985 156.365C93.0556 159.135 98.2736 163.855 101.153 170.524C103.569 176.116 103.466 181.913 100.844 187.915C97.8624 194.789 92.2845 199.124 84.1105 200.92C75.8337 202.767 69.0991 202.459 63.9068 199.996Z" fill="#0D131A"/>
<path d="M66.2973 157.442C72.2093 155.339 78.2756 155.544 84.496 158.058C90.6651 160.52 95.1634 164.573 97.9908 170.216C100.87 175.859 101.204 181.4 98.9933 186.838C96.7827 192.327 92.7214 196.123 86.8094 198.226C80.846 200.33 74.754 200.125 68.5336 197.611C62.3131 195.097 57.7891 191.044 54.9616 185.453C52.1342 179.861 51.8257 174.32 54.0363 168.831C56.2469 163.342 60.3339 159.546 66.2973 157.442Z" fill="#E3C582"/>
<path d="M98.762 171.832C100.818 176.962 100.895 181.964 98.9933 186.838C96.7827 192.327 92.7215 196.123 86.8094 198.226C80.846 200.33 74.7541 200.125 68.5336 197.611C63.7526 195.713 59.9226 192.763 57.0437 188.761C54.2162 184.863 52.7511 180.682 52.6483 176.218C53.8821 179.245 55.7071 181.938 58.1233 184.298C60.6423 186.761 63.5726 188.659 66.9142 189.993C73.1347 192.506 79.2266 192.712 85.1901 190.608C91.1021 188.505 95.1634 184.709 97.374 179.22C98.2993 177.014 98.762 174.551 98.762 171.832Z" fill="#BFA56F"/>
<path d="M63.9839 207.153C54.7817 207.307 47.5074 204.742 42.1609 199.458C37.5855 194.995 35.2978 189.762 35.2978 183.76C35.2978 176.731 37.6883 171.011 42.4693 166.6C47.456 161.931 54.1905 159.597 62.673 159.597C70.6928 159.597 77.3759 161.931 82.7224 166.6C87.8119 171.063 90.3567 176.398 90.3567 182.605C90.3567 189.121 87.9661 194.738 83.1851 199.458C78.1985 204.434 71.7981 206.999 63.9839 207.153Z" fill="#0D131A"/>
<path d="M62.673 161.29C69.5618 161.29 75.4481 163.444 80.3319 167.754C85.2157 172.063 87.6577 177.244 87.6577 183.298C87.6577 189.351 85.2157 194.533 80.3319 198.842C75.4481 203.1 69.5618 205.229 62.673 205.229C55.7842 205.229 49.9236 203.1 45.0911 198.842C40.2073 194.533 37.7654 189.351 37.7654 183.298C37.7654 177.244 40.2073 172.063 45.0911 167.754C49.9236 163.444 55.7842 161.29 62.673 161.29Z" fill="#E3C582"/>
<path d="M82.7996 170.293C86.0383 174.192 87.6577 178.527 87.6577 183.298C87.6577 189.351 85.2158 194.533 80.3319 198.842C75.4481 203.1 69.5618 205.229 62.673 205.229C56.7096 205.229 51.4145 203.562 46.7877 200.227C42.2637 196.893 39.4105 192.686 38.2281 187.607C40.5415 190.377 43.4461 192.558 46.9419 194.148C50.4891 195.79 54.2934 196.61 58.3547 196.61C65.2434 196.61 71.1298 194.482 76.0136 190.224C80.8974 185.914 83.3394 180.733 83.3394 174.679C83.3394 173.14 83.1594 171.678 82.7996 170.293Z" fill="#BFA56F"/>
<path d="M84.2647 145.977C89.457 150.645 92.0531 156.288 92.0531 162.906C92.0531 169.831 89.4827 175.475 84.3418 179.835C79.3037 184.144 72.8776 186.325 65.0635 186.376C56.581 186.427 49.6922 184.119 44.3971 179.45C39.3591 174.987 36.84 169.447 36.84 162.829C36.84 155.801 39.539 150.004 44.9369 145.438C50.1806 141.026 56.6324 138.82 64.2923 138.82C72.2607 138.82 78.9182 141.206 84.2647 145.977Z" fill="#0D131A"/>
<path d="M64.2924 140.59C71.1812 140.59 77.0418 142.745 81.8742 147.054C86.758 151.312 89.2 156.468 89.2 162.521C89.2 168.575 86.758 173.756 81.8742 178.065C77.0418 182.374 71.1812 184.529 64.2924 184.529C57.4036 184.529 51.5173 182.374 46.6334 178.065C41.7496 173.807 39.3077 168.626 39.3077 162.521C39.3077 156.468 41.7496 151.312 46.6334 147.054C51.5173 142.745 57.4036 140.59 64.2924 140.59Z" fill="#E3C582"/>
<path d="M89.2 162.521C89.2 168.575 86.758 173.756 81.8742 178.065C77.0418 182.375 71.1812 184.529 64.2924 184.529C58.6374 184.529 53.5479 183.016 49.0239 179.989C44.6542 176.962 41.7239 173.115 40.233 168.446C42.5464 171.063 45.3996 173.14 48.7926 174.679C52.3398 176.218 56.067 176.988 59.974 176.988C66.8628 176.988 72.7234 174.833 77.5559 170.524C82.4397 166.215 84.8816 161.033 84.8816 154.98C84.8816 152.979 84.5732 151.004 83.9562 149.055C87.4521 153.056 89.2 157.545 89.2 162.521Z" fill="#BFA56F"/>
<path d="M59.5885 109.117C68.9963 109.117 77.0161 112.195 83.6478 118.351C89.5598 123.84 92.5159 129.637 92.5159 135.742C92.5159 143.95 89.3285 150.876 82.9538 156.519C76.6305 162.213 68.8935 165.06 59.7427 165.06C51.3117 165.06 43.9345 162.547 37.6112 157.519C30.8252 152.081 27.4323 145.31 27.4323 137.204C27.4323 129.971 30.234 123.635 35.8376 118.197C42.0067 112.144 49.9236 109.117 59.5885 109.117Z" fill="#0D131A"/>
<path d="M30.4396 137.204C30.4396 130.073 33.2928 123.994 38.9992 118.967C44.757 113.939 51.6715 111.425 59.7427 111.425C67.8139 111.425 74.7027 113.939 80.409 118.967C86.1154 123.994 88.9686 130.073 88.9686 137.204C88.9686 144.335 86.1154 150.414 80.409 155.442C74.7027 160.469 67.8139 162.983 59.7427 162.983C51.6715 162.983 44.757 160.469 38.9992 155.442C33.2928 150.414 30.4396 144.335 30.4396 137.204Z" fill="#E3C582"/>
<path d="M56.9666 137.435L41.544 136.665C36.7115 135.691 33.1643 134.254 30.9023 132.356C32.239 126.354 35.5805 121.378 40.9271 117.428C46.3764 113.426 52.6483 111.425 59.7427 111.425C64.8322 111.425 69.5875 112.503 74.0087 114.657C78.2756 116.761 81.7457 119.634 84.419 123.276C79.5865 131.535 70.4357 136.255 56.9666 137.435Z" fill="#BFA56F"/>
<path d="M87.889 130.125C88.6088 132.433 88.9686 134.793 88.9686 137.204C88.9686 144.335 86.1154 150.414 80.409 155.442C74.7027 160.469 67.8139 162.983 59.7427 162.983C53.5222 162.983 47.8672 161.418 42.7778 158.289C37.8425 155.159 34.321 151.107 32.2133 146.13C34.9893 148.952 38.2538 151.158 42.0066 152.748C45.9651 154.39 50.1292 155.211 54.499 155.211C63.1871 155.211 70.2815 153.39 75.7822 149.747C82.2083 145.541 86.2439 139 87.889 130.125Z" fill="#BFA56F"/>
<path d="M76.3992 134.665C76.3992 132.048 77.3502 129.74 79.2524 127.739C81.1545 125.738 83.3394 124.738 85.807 124.738C88.4288 124.738 90.7165 125.687 92.6701 127.585C94.6236 129.535 95.6004 131.792 95.6004 134.357C95.6004 136.973 94.6493 139.256 92.7472 141.206C90.8451 143.155 88.6859 144.13 86.2697 144.13C82.9281 144.13 80.3576 143.027 78.5583 140.821C77.1189 139.077 76.3992 137.025 76.3992 134.665Z" fill="#0D131A"/>
<path d="M85.807 142.591C83.6992 142.591 81.9256 141.796 80.4862 140.205C78.9953 138.615 78.2499 136.691 78.2499 134.434C78.2499 132.228 78.9953 130.33 80.4862 128.739C81.977 127.149 83.7506 126.354 85.807 126.354C87.9147 126.354 89.6883 127.149 91.1278 128.739C92.6186 130.33 93.3641 132.228 93.3641 134.434C93.3641 136.691 92.6186 138.615 91.1278 140.205C89.6883 141.796 87.9147 142.591 85.807 142.591Z" fill="#E8528D"/>
<path d="M84.0334 131.818L82.5682 132.664C82.0541 132.715 81.6171 132.587 81.2573 132.279C80.9488 131.971 80.846 131.561 80.9488 131.048C81.0517 130.484 81.3087 129.971 81.72 129.509C82.1827 129.099 82.6967 128.842 83.2622 128.74L84.4961 129.047C84.8045 129.406 84.9073 129.842 84.8045 130.355L84.0334 131.818Z" fill="#F3B3C9"/>
<path d="M91.2049 131.202C91.2049 130.125 91.025 129.15 90.6651 128.278C92.4644 129.817 93.3641 131.869 93.3641 134.434C93.3641 136.691 92.6187 138.615 91.1278 140.205C89.6884 141.796 87.9147 142.591 85.807 142.591C84.2647 142.591 82.851 142.103 81.5658 141.129C80.2805 140.205 79.3552 138.974 78.7897 137.435C80.1777 138.717 81.7971 139.359 83.6478 139.359C85.7556 139.359 87.5292 138.564 88.9686 136.973C90.4595 135.383 91.2049 133.459 91.2049 131.202Z" fill="#C9467C"/>
<path d="M77.0931 169.447C77.6072 166.882 78.9953 164.932 81.2573 163.598C83.3136 162.316 85.4728 161.905 87.7348 162.367C90.0996 162.829 91.9503 164.111 93.2869 166.215C94.6236 168.369 95.0348 170.729 94.5207 173.294C94.0581 175.398 92.85 177.116 90.8964 178.45C88.7887 179.835 86.4753 180.271 83.9562 179.758C81.3858 179.194 79.4579 177.86 78.1727 175.757C76.9903 173.807 76.6305 171.704 77.0931 169.447Z" fill="#0D131A"/>
<path d="M84.2647 178.296C82.4139 177.937 80.9745 176.911 79.9463 175.218C78.9695 173.525 78.6868 171.704 79.0981 169.755C79.4579 167.754 80.4347 166.189 82.0284 165.06C83.622 163.932 85.3442 163.547 87.195 163.906C89.0457 164.317 90.4851 165.343 91.5133 166.984C92.4901 168.677 92.7728 170.498 92.3616 172.448C92.0017 174.449 91.0249 176.013 89.4313 177.142C87.8376 178.27 86.1154 178.655 84.2647 178.296Z" fill="#E8528D"/>
<path d="M84.6503 168.446L82.1056 168.369C81.8485 168.01 81.8228 167.6 82.0284 167.138C82.1827 166.676 82.5168 166.292 83.0309 165.984C83.4936 165.676 83.9563 165.548 84.419 165.599C84.933 165.599 85.2929 165.779 85.4985 166.138C85.7556 166.446 85.7813 166.83 85.5757 167.292L84.6503 168.446Z" fill="#F3B3C9"/>
<path d="M91.0507 169.216L91.1278 166.523C92.413 168.318 92.8243 170.293 92.3616 172.448C92.0017 174.449 91.025 176.013 89.4313 177.142C87.8376 178.27 86.1154 178.655 84.2647 178.296C82.8767 177.988 81.6943 177.296 80.7175 176.218C79.7921 175.141 79.2266 173.884 79.021 172.448C79.9978 173.782 81.3087 174.654 82.9538 175.064C84.7531 175.423 86.4496 175.038 88.0432 173.91C89.6883 172.73 90.6908 171.165 91.0507 169.216Z" fill="#C9467C"/>
<path d="M77.4788 196.841C78.9182 195.354 80.7175 194.584 82.8767 194.533C85.0359 194.482 86.9637 195.225 88.6602 196.764C90.2539 198.15 91.1535 199.919 91.3591 202.074C91.5648 204.229 90.9993 205.999 89.6626 207.384C88.2232 208.923 86.2954 209.641 83.8792 209.538C81.5658 209.487 79.715 208.769 78.327 207.384C76.7333 205.845 75.8337 204.1 75.628 202.151C75.4224 200.15 76.0393 198.38 77.4788 196.841Z" fill="#0D131A"/>
<path d="M79.4836 206.229C78.1984 205.101 77.5044 203.741 77.4016 202.151C77.2988 200.561 77.8129 199.176 78.9439 197.996C80.0748 196.816 81.4886 196.2 83.1851 196.149C84.8302 196.046 86.2953 196.559 87.5805 197.688C88.8658 198.816 89.5598 200.176 89.6626 201.766C89.7654 203.408 89.2513 204.793 88.1203 205.922C86.9893 207.102 85.6013 207.717 83.9562 207.768C82.2597 207.82 80.7689 207.307 79.4836 206.229Z" fill="#E8528D"/>
<path d="M83.802 199.612L82.4911 199.227C82.1312 199.022 81.9256 198.739 81.8742 198.38C81.8228 198.021 81.977 197.739 82.3369 197.534C82.6453 197.277 83.0309 197.175 83.4936 197.226L84.8045 197.611L85.4214 198.38L84.9587 199.227L83.802 199.612Z" fill="#F3B3C9"/>
<path d="M89.5855 201.228C89.8939 202.972 89.4056 204.536 88.1203 205.922C86.9893 207.102 85.6013 207.717 83.9562 207.768C82.2597 207.82 80.7689 207.307 79.4836 206.229C78.5069 205.409 77.89 204.408 77.6329 203.228C77.3245 202.048 77.3759 200.92 77.7871 199.842C77.9414 201.176 78.6097 202.356 79.7921 203.382C81.0773 204.46 82.5682 204.973 84.2647 204.921C85.9097 204.87 87.2978 204.254 88.4288 203.074C88.9943 202.561 89.3798 201.946 89.5855 201.228Z" fill="#C9467C"/>
<path d="M95.1377 184.683C96.6799 183.708 98.4278 183.375 100.381 183.683C102.386 183.991 104.031 184.94 105.317 186.53C106.448 187.915 106.936 189.531 106.782 191.378C106.628 193.327 105.728 194.841 104.083 195.918C102.695 196.79 100.947 197.047 98.8391 196.687C96.7827 196.328 95.2405 195.533 94.2123 194.302C93.0813 192.917 92.5158 191.327 92.5158 189.531C92.5158 187.428 93.3898 185.812 95.1377 184.683Z" fill="#0D131A"/>
<path d="M102.232 185.76L103.929 187.146C104.854 188.325 105.214 189.582 105.008 190.916C104.803 192.301 104.109 193.379 102.926 194.148C101.744 194.918 100.381 195.174 98.8391 194.918C97.3483 194.661 96.1402 193.943 95.2148 192.763L94.7521 191.993C95.6775 192.558 96.68 192.84 97.7596 192.84C98.8905 192.84 99.893 192.558 100.767 191.993C101.847 191.327 102.515 190.377 102.772 189.146C103.029 187.966 102.849 186.838 102.232 185.76Z" fill="#C9467C"/>
<path d="M100.767 191.993C99.893 192.558 98.8905 192.84 97.7595 192.84C96.6799 192.84 95.6774 192.558 94.7521 191.993C94.1352 190.916 93.9552 189.787 94.2123 188.608C94.4693 187.376 95.1376 186.427 96.2172 185.76C97.0912 185.196 98.0936 184.914 99.2246 184.914C100.304 184.914 101.307 185.196 102.232 185.76C102.849 186.838 103.029 187.966 102.772 189.146C102.515 190.377 101.846 191.326 100.767 191.993Z" fill="#E8528D"/>
<path d="M98.9933 187.684L97.9137 188.069L96.9884 187.684C96.8341 187.479 96.8341 187.222 96.9884 186.915C97.0912 186.556 97.3225 186.273 97.6824 186.068C98.0936 185.812 98.4792 185.683 98.8391 185.683L99.6873 185.991C100.099 186.504 99.8672 187.069 98.9933 187.684Z" fill="#F3B3C9"/>
<path d="M119.197 170.524C120.945 170.934 122.359 171.832 123.438 173.217C124.569 174.654 125.006 176.193 124.749 177.834C124.544 179.322 123.721 180.502 122.282 181.374C120.688 182.349 118.837 182.657 116.729 182.298C115.033 181.99 113.696 181.118 112.72 179.681C111.897 178.347 111.563 176.988 111.717 175.603C111.871 174.012 112.668 172.679 114.108 171.601C115.598 170.473 117.295 170.114 119.197 170.524Z" fill="#0D131A"/>
<path d="M119.12 178.142C120.097 177.527 120.714 176.68 120.971 175.603C121.176 174.577 120.996 173.576 120.431 172.602C121.099 172.961 121.613 173.371 121.973 173.833C122.796 174.859 123.13 175.988 122.976 177.219C122.77 178.45 122.153 179.399 121.125 180.066C120.045 180.784 118.811 181.015 117.423 180.759C116.087 180.502 115.007 179.861 114.185 178.835L113.722 178.219C115.676 179.296 117.475 179.271 119.12 178.142Z" fill="#C9467C"/>
<path d="M119.12 178.142C117.475 179.271 115.676 179.296 113.722 178.219C113.156 177.193 113.002 176.167 113.259 175.141C113.516 174.064 114.133 173.217 115.11 172.602C115.881 172.089 116.755 171.832 117.732 171.832C118.709 171.832 119.608 172.089 120.431 172.602C120.996 173.576 121.176 174.577 120.971 175.603C120.714 176.68 120.097 177.527 119.12 178.142Z" fill="#E8528D"/>
<path d="M117.578 174.295C116.704 174.756 116.112 174.756 115.804 174.295C115.444 173.833 115.65 173.346 116.421 172.833L117.423 172.448L118.195 172.756C118.606 173.269 118.4 173.782 117.578 174.295Z" fill="#F3B3C9"/>
<path d="M132.229 150.44C134.028 150.696 135.442 151.44 136.47 152.671C137.447 153.8 137.91 155.057 137.858 156.442C137.807 157.878 137.01 159.058 135.468 159.982C134.028 160.854 132.46 161.11 130.764 160.751C129.119 160.392 127.859 159.648 126.985 158.52C126.214 157.545 125.854 156.468 125.906 155.288C125.957 153.646 126.754 152.364 128.296 151.44C129.633 150.619 130.944 150.286 132.229 150.44Z" fill="#0D131A"/>
<path d="M135.082 153.133C135.905 154.005 136.265 155.006 136.162 156.134C136.059 157.211 135.545 158.109 134.62 158.827C133.694 159.494 132.615 159.751 131.381 159.597C130.199 159.443 129.196 158.93 128.374 158.058L127.911 157.519C129.762 158.34 131.381 158.212 132.769 157.135C133.592 156.519 134.08 155.724 134.234 154.749C134.388 153.826 134.183 152.928 133.617 152.056C134.183 152.312 134.671 152.671 135.082 153.133Z" fill="#C9467C"/>
<path d="M128.836 152.363C129.504 151.85 130.276 151.568 131.15 151.517L133.617 152.056C134.183 152.928 134.388 153.826 134.234 154.749C134.08 155.724 133.591 156.519 132.769 157.134C131.381 158.212 129.762 158.34 127.911 157.519C127.345 156.647 127.165 155.724 127.371 154.749C127.525 153.774 128.014 152.979 128.836 152.363Z" fill="#E8528D"/>
<path d="M131.15 153.749L129.53 153.903C129.17 153.543 129.325 153.082 129.993 152.517L131.612 152.364C131.972 152.825 131.818 153.287 131.15 153.749Z" fill="#F3B3C9"/>
<path d="M19.5667 141.898C19.5667 139.025 20.6205 136.614 22.7283 134.665C24.6818 132.818 26.8924 131.894 29.36 131.894C31.9305 131.894 34.1411 132.869 35.9918 134.819C37.8425 136.768 38.7679 139.051 38.7679 141.667C38.8193 144.386 37.9453 146.695 36.146 148.593C34.2953 150.542 31.9819 151.517 29.2058 151.517C27.2009 151.517 25.273 150.876 23.4223 149.593C20.8519 147.798 19.5667 145.233 19.5667 141.898Z" fill="#0D131A"/>
<path d="M29.2058 149.747C27.0981 149.747 25.3245 148.952 23.885 147.362C22.3942 145.771 21.6487 143.848 21.6487 141.59C21.6487 139.384 22.3942 137.486 23.885 135.896C25.3759 134.306 27.1495 133.51 29.2058 133.51C31.3136 133.51 33.0872 134.306 34.5267 135.896C36.0175 137.486 36.7629 139.384 36.7629 141.59C36.7629 143.848 36.0175 145.771 34.5267 147.362C33.0872 148.952 31.3136 149.747 29.2058 149.747Z" fill="#E8528D"/>
<path d="M27.3551 138.974L25.89 139.743C25.3759 139.846 24.9646 139.743 24.6562 139.436C24.3477 139.077 24.2449 138.641 24.3477 138.128C24.3991 137.563 24.6562 137.076 25.1188 136.665C25.5301 136.204 26.0185 135.947 26.584 135.896L27.8178 136.204C28.1777 136.512 28.3062 136.948 28.2034 137.512L27.3551 138.974Z" fill="#F3B3C9"/>
<path d="M29.2058 149.747C27.6122 149.747 26.1727 149.26 24.8875 148.285C23.6537 147.362 22.754 146.13 22.1885 144.591C23.628 145.874 25.2474 146.515 27.0467 146.515C29.1544 146.515 30.928 145.72 32.3675 144.13C33.8583 142.539 34.6038 140.616 34.6038 138.358L34.064 135.357C35.8633 137.05 36.7629 139.128 36.7629 141.59C36.7629 143.848 36.0175 145.771 34.5267 147.362C33.0872 148.952 31.3136 149.747 29.2058 149.747Z" fill="#C9467C"/>
<path d="M31.9048 177.142C31.4421 174.731 31.9562 172.448 33.4471 170.293C34.9379 168.087 36.8914 166.753 39.3077 166.292C41.4668 165.881 43.5746 166.446 45.631 167.985C47.6873 169.472 48.9468 171.371 49.4095 173.679C49.8722 175.936 49.4866 178.04 48.2528 179.989C46.9676 182.092 45.1169 183.375 42.7006 183.837C40.0274 184.401 37.6369 183.965 35.5291 182.528C33.5756 181.195 32.3675 179.399 31.9048 177.142Z" fill="#0D131A"/>
<path d="M42.1608 182.375C40.3101 182.734 38.6136 182.323 37.0714 181.143C35.5291 180.015 34.5523 178.45 34.1411 176.449C33.7812 174.5 34.0896 172.704 35.0664 171.063C36.0946 169.421 37.534 168.395 39.3848 167.985C41.2355 167.626 42.9577 168.036 44.5513 169.216C46.145 170.344 47.1218 171.909 47.4817 173.91C47.8929 175.859 47.5588 177.68 46.4792 179.373C45.451 181.015 44.0116 182.015 42.1608 182.375Z" fill="#E8528D"/>
<path d="M38.7679 173.14C37.9968 174.218 37.1999 174.525 36.3774 174.064C36.0175 173.859 35.8376 173.499 35.8376 172.986C35.8376 172.473 35.9918 171.986 36.3003 171.524C36.6087 171.063 36.9943 170.755 37.457 170.601L38.6908 170.678L39.2306 171.755L38.7679 173.14Z" fill="#F3B3C9"/>
<path d="M45.0141 171.447C44.757 170.319 44.4229 169.472 44.0116 168.908C45.8623 169.985 47.019 171.653 47.4817 173.91C47.893 175.859 47.5588 177.68 46.4792 179.373C45.451 181.015 44.0116 182.015 42.1609 182.374L38.151 181.836C36.8658 181.22 35.8376 180.297 35.0665 179.066C36.6087 179.938 38.151 180.22 39.6933 179.912C41.544 179.553 42.9834 178.527 44.0116 176.834C45.0912 175.192 45.4253 173.397 45.0141 171.447Z" fill="#C9467C"/>
<path d="M33.4471 203.844C33.0358 201.997 33.37 200.227 34.4496 198.534C35.6834 196.687 37.457 195.559 39.7704 195.148C41.981 194.789 44.0116 195.174 45.8623 196.303C47.6102 197.431 48.6898 198.919 49.1011 200.766C49.6152 202.92 49.2039 204.844 47.8673 206.537C46.5821 208.076 44.8856 209.025 42.7778 209.384C40.3616 209.795 38.2795 209.436 36.5316 208.307C34.8865 207.281 33.8584 205.793 33.4471 203.844Z" fill="#0D131A"/>
<path d="M42.3922 207.922C40.7471 208.179 39.2049 207.871 37.7654 206.999C36.3774 206.076 35.5034 204.819 35.1436 203.228C34.7837 201.638 35.0921 200.176 36.0689 198.842C36.9943 197.508 38.2795 196.713 39.9246 196.457C41.5697 196.149 43.1119 196.457 44.5514 197.38C45.9394 198.303 46.8134 199.56 47.1732 201.151C47.5331 202.741 47.2503 204.177 46.325 205.46C45.3482 206.794 44.0373 207.615 42.3922 207.922Z" fill="#E8528D"/>
<path d="M39.3076 200.535L38.3052 201.305L37.2256 201.228C36.9171 201.022 36.7629 200.74 36.7629 200.381C36.7115 199.971 36.84 199.586 37.1485 199.227L38.1509 198.457L39.2305 198.534L39.7703 199.381L39.3076 200.535Z" fill="#F3B3C9"/>
<path d="M46.325 205.46C45.3482 206.794 44.0373 207.615 42.3922 207.922L38.7679 207.461C37.6369 206.999 36.7372 206.255 36.0689 205.229C37.3027 205.947 38.6908 206.178 40.233 205.922C41.8781 205.665 43.1633 204.87 44.0887 203.536C45.014 202.202 45.2968 200.74 44.9369 199.15L44.0887 197.072C45.7338 197.996 46.7619 199.355 47.1732 201.151C47.5331 202.741 47.2503 204.177 46.325 205.46Z" fill="#C9467C"/>
<path d="M101.23 74.1041C103.697 86.9806 101.255 98.6259 93.9039 109.04C86.5524 119.454 75.9365 126.226 62.0561 129.355C47.2503 132.638 33.9611 130.715 22.1885 123.584C10.93 116.761 3.88698 107.065 1.05949 94.4962C-1.45954 83.0048 0.648218 71.9751 7.38278 61.4071C14.9913 49.6079 26.584 42.0667 42.1609 38.7834C56.4525 35.808 69.4333 38.0396 81.1031 45.4782C92.2074 52.5577 98.9162 62.0997 101.23 74.1041Z" fill="#0D131A"/>
<path d="M78.6354 47.0942C89.4827 53.7633 96.063 63.1001 98.3764 75.1045C100.638 87.0576 97.9909 98.1642 90.4337 108.424C82.8252 118.633 72.5178 124.995 59.5113 127.508C46.5049 130.022 34.5523 127.919 23.6537 121.198C12.8064 114.478 6.22606 105.141 3.91267 93.188C1.59927 81.2349 4.24682 70.1283 11.8553 59.8681C19.4124 49.6592 29.7199 43.2979 42.7778 40.7842C55.8356 38.2705 67.7882 40.3738 78.6354 47.0942Z" fill="#E3C582"/>
<path d="M74.8569 45.0165C80.9746 48.0433 86.064 52.1217 90.1253 57.2518C94.3409 62.5357 97.0912 68.4866 98.3765 75.1045C100.638 87.0576 97.9909 98.1642 90.4338 108.424C82.8253 118.633 72.5178 124.995 59.5114 127.508C51.6458 128.996 43.9345 128.739 36.3774 126.739C29.0773 124.738 22.7026 121.301 17.2533 116.427C27.3294 121.455 38.0482 122.866 49.4095 120.66C62.416 118.146 72.7234 111.785 80.332 101.576C87.8891 91.3155 90.5109 80.2089 88.1975 68.2558C86.4496 59.0729 82.0027 51.3265 74.8569 45.0165Z" fill="#BFA56F"/>
<path d="M27.8949 95.1887C27.0209 90.623 28.3576 85.9802 31.9048 81.2606C35.9147 76.0792 41.4154 72.8216 48.407 71.4878C55.193 70.1539 61.4134 71.0004 67.0684 74.0271C72.5178 77.0026 75.7051 81.0041 76.6305 86.0315C77.6072 91.2129 76.1935 96.1378 72.3892 100.806C68.3793 105.577 62.93 108.63 56.0412 109.963C50.2834 111.041 44.6799 110.451 39.2305 108.193C32.8044 105.526 29.0259 101.191 27.8949 95.1887Z" fill="#0D131A"/>
<path d="M55.5786 107.886C49.5637 109.066 44.1144 108.373 39.2306 105.808C34.3467 103.243 31.4421 99.6006 30.5168 94.8809C29.5914 90.11 30.928 85.6468 34.5267 81.4914C38.1253 77.3361 42.932 74.6684 48.9468 73.4885C54.9617 72.3599 60.411 73.0524 65.2948 75.5662C70.1787 78.1312 73.0833 81.7736 74.0086 86.4933C74.8826 91.2642 73.546 95.7274 69.9988 99.8828C66.4001 104.089 61.5934 106.757 55.5786 107.886Z" fill="#E8528D"/>
<path d="M43.8574 85.4159C42.2637 86.1854 40.7728 86.4932 39.3848 86.3393C38.151 86.1854 37.3541 85.8007 36.9943 85.1851C36.583 84.313 36.7886 83.3126 37.6112 82.184C38.4337 81.0554 39.5647 80.1319 41.0042 79.4137C42.5464 78.6442 44.0373 78.3364 45.4767 78.4903C46.762 78.6442 47.5845 79.0803 47.9444 79.7985C48.3556 80.7219 48.2271 81.671 47.5588 82.6457C46.7877 83.723 45.5538 84.6464 43.8574 85.4159Z" fill="#F3B3C9"/>
<path d="M55.5786 107.886L43.5489 107.501C39.8475 106.475 36.8143 104.731 34.4495 102.268C39.0249 104.166 43.9602 104.628 49.2553 103.653C55.2701 102.525 60.0768 99.8571 63.6755 95.6504C67.2227 91.4951 68.5593 87.0319 67.6853 82.2609C67.1713 79.4907 65.8603 77.0282 63.7526 74.8736C66.4772 76.0022 68.7392 77.5669 70.5385 79.5676C72.3378 81.6197 73.4945 83.9282 74.0086 86.4932C74.8826 91.2642 73.5459 95.7274 69.9987 99.8828C66.4001 104.089 61.5934 106.757 55.5786 107.886Z" fill="#C9467C"/>
<path d="M71.9266 70.4874C70.4357 70.7439 69.0477 70.4617 67.7625 69.6409C66.4772 68.7688 65.7061 67.5889 65.4491 66.1011C65.1406 64.6134 65.4234 63.2283 66.2973 61.9458C67.1713 60.6632 68.3537 59.8937 69.8445 59.6372C71.3354 59.3294 72.7234 59.6116 74.0086 60.4837C75.2939 61.3558 76.065 62.5357 76.322 64.0234C76.6305 65.5112 76.3477 66.8963 75.4738 68.1788C74.5998 69.41 73.4174 70.1796 71.9266 70.4874Z" fill="#0D131A"/>
<path d="M69.6132 65.4086L67.9938 65.0238C67.4797 64.716 67.1713 64.28 67.0685 63.7157C67.017 63.1514 67.1456 62.6127 67.454 62.0997L68.7649 61.1763C69.3818 61.125 69.9216 61.2532 70.3843 61.561C70.8984 61.8688 71.2069 62.3049 71.3097 62.8692L70.9241 64.4852L69.6132 65.4086Z" fill="white"/>
<path d="M19.4896 74.8736C19.2325 73.3859 19.5153 72.0008 20.3378 70.7182C21.2118 69.4357 22.3942 68.6662 23.885 68.4097C25.3759 68.1019 26.7639 68.384 28.0491 69.2562C29.3344 70.1283 30.1312 71.3082 30.4397 72.7959C30.6967 74.2836 30.3882 75.6688 29.5143 76.9513C28.6918 78.1825 27.5351 78.952 26.0442 79.2598C24.5533 79.5676 23.1653 79.2855 21.8801 78.4134C20.5949 77.5412 19.798 76.3613 19.4896 74.8736Z" fill="#0D131A"/>
<path d="M23.6537 74.3349L22.1114 74.0271C21.5973 73.668 21.2889 73.2063 21.1861 72.642C21.0833 72.0777 21.1861 71.539 21.4945 71.026C21.8544 70.513 22.3171 70.2052 22.8826 70.1026C23.4481 70.0513 23.9879 70.1796 24.502 70.4874C24.9646 70.7952 25.2474 71.2312 25.3502 71.7955C25.453 72.3598 25.3502 72.8985 25.0417 73.4115C24.6819 73.9245 24.2192 74.2323 23.6537 74.3349Z" fill="white"/>
<path d="M51.3373 18.5453L62.5188 37.7831C63.3413 39.3734 63.7526 40.6559 63.7526 41.6306C63.7526 42.708 63.2642 43.6827 62.2874 44.5548C58.6374 47.6841 53.2138 49.7618 46.0165 50.7878C38.8707 51.8139 33.1129 51.3778 28.7431 49.4797C27.3037 48.8641 26.4297 48.0689 26.1213 47.0942C25.8128 46.1708 25.8128 44.4009 26.1213 41.7845C26.6868 36.8597 28.0491 30.2675 30.2083 22.0081C32.2132 14.313 34.0126 8.46465 35.6062 4.46319C36.6858 1.69294 37.5084 0.25652 38.0739 0.153918C38.6908 0.0513167 39.8732 1.15428 41.6211 3.46282L51.3373 18.5453Z" fill="#0D131A"/>
<path d="M37.3798 5.61746L38.3052 3.46282C38.6136 3.36022 39.2305 4.00148 40.1559 5.3866C44.7827 12.2096 51.2345 23.111 59.5113 38.0909C60.4367 39.7838 60.7966 41.0663 60.5909 41.9385C60.3853 42.8106 59.4856 43.734 57.892 44.7087C54.6532 46.7607 50.5148 48.1459 45.4767 48.8641L32.9844 48.4793C30.9794 47.9663 29.7199 47.4276 29.2058 46.8633C28.7431 46.299 28.5889 45.273 28.7431 43.7853C29.1544 39.8864 30.1569 34.3716 31.7506 27.2408C33.4985 19.3917 35.3749 12.184 37.3798 5.61746Z" fill="#CAD3CC"/>
<path d="M59.5113 38.0909C60.4367 39.7838 60.7966 41.0663 60.5909 41.9385C60.3853 42.8106 59.4856 43.734 57.892 44.7087C54.6532 46.7607 50.5148 48.1459 45.4767 48.8641L32.9844 48.4793C30.9794 47.9663 29.7199 47.4276 29.2058 46.8633C28.7431 46.299 28.5889 45.273 28.7431 43.7853L29.0516 41.1689C30.1312 42.4002 32.4446 43.1953 35.9918 43.5544C39.5904 43.8622 43.0091 43.5288 46.2478 42.5541C54.9359 39.8351 56.9923 34.1407 52.4169 25.4709L59.5113 38.0909Z" fill="#A6ADA8"/>
<path d="M138.63 134.28C140.223 134.536 141.483 135.229 142.408 136.358C143.282 137.332 143.693 138.435 143.642 139.667C143.591 141 142.871 142.078 141.483 142.898C140.198 143.668 138.784 143.899 137.242 143.591C135.802 143.283 134.671 142.616 133.849 141.59C133.18 140.667 132.872 139.692 132.923 138.666C132.975 137.23 133.669 136.075 135.005 135.203C136.239 134.434 137.447 134.126 138.63 134.28Z" fill="#0D131A"/>
<path d="M137.858 142.514C136.727 142.411 135.802 141.949 135.082 141.129L134.697 140.667C136.29 141.488 137.756 141.385 139.092 140.359C139.812 139.846 140.249 139.128 140.403 138.205C140.557 137.332 140.377 136.512 139.863 135.742L141.174 136.742C141.894 137.512 142.202 138.41 142.1 139.436C141.997 140.41 141.534 141.206 140.712 141.821C139.889 142.437 138.938 142.668 137.858 142.514Z" fill="#C9467C"/>
<path d="M139.092 140.359C137.756 141.385 136.29 141.488 134.697 140.667C134.183 139.897 134.003 139.077 134.157 138.204C134.311 137.281 134.748 136.563 135.468 136.05C136.856 135.075 138.321 134.973 139.863 135.742C140.377 136.512 140.557 137.332 140.403 138.204C140.249 139.128 139.812 139.846 139.092 140.359Z" fill="#E8528D"/>
<path d="M137.627 137.281L136.162 137.435C135.802 137.076 135.956 136.665 136.625 136.204L137.396 135.896L138.013 136.05C138.373 136.409 138.244 136.819 137.627 137.281Z" fill="#F3B3C9"/>
</svg>
